M48
INCH
T17C0.126
T16C0.089
T15C0.083
T14C0.122
T13C0.039
T12C0.040
T11C0.039
%
T13
G05
X009600Y015200
X010600Y015200
X008600Y015200
X011600Y015200
X012600Y015200
X013600Y015200
X015600Y015200
X014600Y015200
X003600Y015200
X004600Y015200
X001600Y015200
X002600Y015200
X005600Y015200
X006600Y015200
X007600Y015200
X012600Y009200
X011600Y009200
X015600Y009200
X014600Y009200
X013600Y009200
X010600Y009200
X009600Y009200
X008600Y009200
X004600Y009200
X003600Y009200
X002600Y009200
X001600Y009200
X007600Y009200
X006600Y009200
X005600Y009200
T11
X005600Y016700
X004600Y016700
X006600Y016700
X007600Y016700
X009600Y016700
X013600Y016700
X014600Y016700
X015600Y016700
X008600Y016700
X004800Y018000
X003800Y018000
X002800Y018000
X001800Y018000
X000800Y018000
X006600Y007700
X005600Y007700
X004600Y007700
X003600Y007700
X002600Y007700
X007600Y007700
X009600Y007700
X008600Y007700
X011600Y007700
X010600Y007700
X018050Y008300
X018050Y009300
X012600Y007100
X010315Y006114
X011339Y006114
X012600Y005100
X012600Y006100
X010315Y003114
X011339Y003114
X012600Y003100
X012600Y004100
X012600Y001100
X012600Y002100
X017750Y015000
X022520Y018210
X021857Y016354
X024520Y018210
X023857Y016354
X022857Y016354
X020930Y018230
X019930Y018230
X027500Y018600
X026500Y018600
X027857Y016354
X026857Y016354
X028857Y016354
X025857Y016354
X024857Y016354
X017750Y010750
T12
X009600Y018000
X010600Y018000
X012600Y018000
X011600Y018000
X008446Y005100
X008446Y004100
X008446Y003100
X008446Y002100
T15
X007163Y017787
X015037Y017787
T16
X016742Y007053
X016742Y001147
T14
X001300Y001300
X030900Y018200
X030900Y001300
T17
X019900Y016000
X031120Y016000
X031120Y003402
M30
