G04 start of page 2 for group 3 layer_idx 0 *
G04 Title: (unknown), top_copper *
G04 Creator: pcb-rnd 3.1.0-dev *
G04 CreationDate: 2023-02-07 00:46:00 UTC *
G04 For: esh *
G04 Format: Gerber/RS-274X *
G04 PCB-Dimensions: 322000 195000 *
G04 PCB-Coordinate-Origin: lower left *
%MOIN*%
%FSLAX25Y25*%
%LNTOP_COPPER_NONE_3*%
%ADD23C,0.0394*%
%ADD22C,0.1260*%
%ADD21C,0.0886*%
%ADD20C,0.1220*%
%ADD19C,0.0393*%
%ADD18C,0.0827*%
%ADD17C,0.0394*%
%ADD16C,0.0866*%
%ADD15C,0.1575*%
%ADD14C,0.0001*%
%ADD13C,0.0700*%
%ADD12C,0.0800*%
%ADD11C,0.0400*%
G54D11*X16000Y152000D02*Y136500D01*
X26000Y152000D02*Y139000D01*
X32500Y132500D01*
X36000Y143000D02*Y152000D01*
X27500Y125000D02*X16000Y136500D01*
Y92000D02*Y116500D01*
X17000Y117500D01*
X39000Y140000D02*X36000Y143000D01*
X46000Y77000D02*Y92000D01*
X56000Y78000D02*Y92000D01*
X36000Y77000D02*Y92000D01*
X86000Y64000D02*X75425Y53425D01*
X78500Y56500D02*X86000Y64000D01*
Y92000D02*Y64000D01*
X66000Y77000D02*Y92000D01*
X76000D02*Y77000D01*
X26000D02*Y92000D01*
X18000Y180000D02*Y170000D01*
X8000Y180000D02*Y166000D01*
X6000Y164000D01*
Y127000D01*
X15500Y117500D02*X6000Y127000D01*
X10000Y123000D01*
X18000Y170000D02*X21000Y167000D01*
X46000D01*
X38000Y187000D02*X40000Y189000D01*
X38000Y180000D02*Y187000D01*
X106000Y189000D02*Y179000D01*
X126000Y71000D02*Y101000D01*
X106000Y77000D02*Y92000D01*
X96000D02*Y69740D01*
X116000Y77000D02*Y92000D01*
X94031Y67661D02*Y60181D01*
X103150Y61142D02*X113386D01*
X96000Y69740D02*X94094Y67835D01*
X113386Y61142D02*Y61945D01*
X94031Y60181D02*X84787Y50937D01*
X103150Y61142D02*Y56024D01*
X84457Y31000D02*X75811D01*
X103150Y56024D02*X93031Y45906D01*
Y36614D02*X93189Y36457D01*
X103150Y31142D02*Y40669D01*
X113386Y50906D01*
X126000Y71000D02*X122441D01*
X113386Y61945D02*X122441Y71000D01*
X119874Y68433D01*
X113386Y50906D02*X125890D01*
X125984Y51000D01*
X93189Y31000D02*Y37858D01*
X75425Y12472D02*Y53425D01*
X84457Y21000D02*X88701D01*
X93031Y25331D02*Y45906D01*
X75425Y12472D02*X78898Y9000D01*
X88701Y21000D02*X93031Y25331D01*
X88701Y21000D02*X91193Y23492D01*
X83000Y9000D02*X78898D01*
X119969Y41000D02*X113386Y34417D01*
X99000Y9000D02*X83000D01*
X99000D02*X113386Y23386D01*
Y34417D01*
X218567Y163543D02*Y156567D01*
X202000Y140000D02*X39000D01*
X32500Y132500D02*X207500D01*
X106000Y163000D02*Y152000D01*
X116000D02*Y160000D01*
X218567Y156567D02*X202000Y140000D01*
X238567Y163543D02*Y151067D01*
X207500Y132500D02*X228567Y153567D01*
Y163543D01*
X136000Y152000D02*Y167000D01*
X258567Y163543D02*Y146433D01*
X268567Y163543D02*Y143567D01*
X258567Y146433D02*X254567Y142433D01*
X212500Y125000D02*X27500D01*
X217500Y117500D02*X15500D01*
X238567Y151067D02*X212500Y125000D01*
X56000Y152000D02*Y167000D01*
X46000Y152000D02*Y167000D01*
X66000D02*Y152000D01*
X76000Y167000D02*Y152000D01*
X86000Y167000D02*Y152000D01*
X96000Y167000D02*Y152000D01*
X248567Y165000D02*Y148567D01*
X265100Y186000D02*Y172900D01*
X285967Y172800D02*X288700Y170067D01*
Y163600D01*
X245200Y182100D02*Y172800D01*
X177500Y177500D02*X166000Y189000D01*
X40000D01*
X209300Y172900D02*Y182300D01*
X285967Y172800D02*X177500D01*
X116000Y180000D02*Y173000D01*
X106000Y163000D01*
X116000Y160000D02*X126000Y170000D01*
Y180000D01*
X177500Y150000D02*Y177500D01*
X156000Y152000D02*Y167000D01*
X146000Y152000D02*Y167000D01*
X177500Y107500D02*X132500D01*
X163134Y51000D02*X258567Y146433D01*
X126000Y101000D02*X132500Y107500D01*
X182000Y93000D02*X174000D01*
X156000Y92000D02*X173000D01*
X174000Y93000D02*X173000Y92000D01*
X126000Y51000D02*X163134D01*
X166000Y41000D02*X268567Y143567D01*
X248567Y148567D02*X217500Y117500D01*
X132500Y107500D02*X130000Y105000D01*
X166000Y41000D02*X119969D01*
G54D12*X56000Y167000D03*
X46000D03*
X66000D03*
X76000D03*
X96000D03*
X136000D03*
G54D13*X96000Y180000D03*
X106000D03*
G54D14*G36*
X129500Y183500D02*X122500D01*
Y176500D01*
X129500D01*
Y183500D01*
G37*
G54D13*X116000Y180000D03*
G54D12*X146000Y167000D03*
X156000D03*
X86000D03*
X96000Y152000D02*Y158000D01*
X106000Y152000D02*Y158000D01*
X86000Y152000D02*Y158000D01*
X116000Y152000D02*Y158000D01*
X126000Y152000D02*Y158000D01*
X136000Y152000D02*Y158000D01*
G54D14*G36*
X152000Y162000D02*X160000D01*
Y148000D01*
X152000D01*
Y162000D01*
G37*
G54D12*X146000Y152000D02*Y158000D01*
X36000Y152000D02*Y158000D01*
X46000Y152000D02*Y158000D01*
X16000Y152000D02*Y158000D01*
X26000Y152000D02*Y158000D01*
X56000Y152000D02*Y158000D01*
X66000Y152000D02*Y158000D01*
X76000Y152000D02*Y158000D01*
G54D14*G36*
X52000Y184000D02*Y176000D01*
X44000D01*
Y184000D01*
X52000D01*
G37*
G54D12*X38000Y180000D03*
X28000D03*
X18000D03*
X8000D03*
G54D15*X13000Y13000D03*
G54D12*X66000Y77000D03*
X56000D03*
X46000D03*
X36000D03*
X26000D03*
X76000D03*
X96000D03*
X86000D03*
X116000D03*
X106000D03*
X126000Y92000D02*Y86000D01*
X116000Y92000D02*Y86000D01*
X156000Y92000D02*Y86000D01*
X146000Y92000D02*Y86000D01*
X136000Y92000D02*Y86000D01*
G54D14*G36*
X184500Y79000D02*X176500D01*
Y87000D01*
X184500D01*
Y79000D01*
G37*
G54D12*X180500Y93000D03*
X126000Y71000D03*
X106000Y92000D02*Y86000D01*
X96000Y92000D02*Y86000D01*
X86000Y92000D02*Y86000D01*
X46000Y92000D02*Y86000D01*
X36000Y92000D02*Y86000D01*
X26000Y92000D02*Y86000D01*
X16000Y92000D02*Y86000D01*
X76000Y92000D02*Y86000D01*
X66000Y92000D02*Y86000D01*
X56000Y92000D02*Y86000D01*
G54D13*X84457Y51000D03*
Y41000D03*
Y31000D03*
G54D14*G36*
X107150Y65142D02*Y57142D01*
X99150D01*
Y65142D01*
X107150D01*
G37*
G36*
X117386D02*Y57142D01*
X109386D01*
Y65142D01*
X117386D01*
G37*
G54D12*X126000Y51000D03*
Y61000D03*
X103150Y31142D03*
X113386D03*
X126000Y31000D03*
Y41000D03*
G54D14*G36*
X80957Y24500D02*Y17500D01*
X87957D01*
Y24500D01*
X80957D01*
G37*
G36*
X130000Y7000D02*X122000D01*
Y15000D01*
X130000D01*
Y7000D01*
G37*
G54D12*X126000Y21000D03*
G54D16*X177500Y150000D03*
G54D12*X225200Y182100D03*
X218567Y163543D03*
X245200Y182100D03*
X238567Y163543D03*
X228567D03*
G54D14*G36*
X213300Y178300D02*X205300D01*
Y186300D01*
X213300D01*
Y178300D01*
G37*
G54D12*X199300Y182300D03*
G54D14*G36*
X279000Y190000D02*Y182000D01*
X271000D01*
Y190000D01*
X279000D01*
G37*
G54D12*X265000Y186000D03*
X278567Y163543D03*
X268567D03*
G54D15*X309000Y182000D03*
G54D14*G36*
X292567Y167543D02*Y159543D01*
X284567D01*
Y167543D01*
X292567D01*
G37*
G54D12*X258567Y163543D03*
X248567D03*
G54D15*X309000Y13000D03*
G54D16*X177500Y107500D03*
G54D17*G54D18*G54D17*G54D11*G54D17*G54D18*G54D17*G54D19*G54D17*G54D20*G54D17*G54D19*G54D17*G54D21*G54D17*G54D19*G54D11*G54D17*G54D11*G54D21*G54D17*G54D22*G54D17*G54D23*G54D17*G54D20*G54D22*G54D17*G54D20*G54D17*G54D22*M02*
