G04 start of page 2 for group 8 layer_idx 1 *
G04 Title: (unknown), bottom_copper *
G04 Creator: pcb-rnd 3.1.0-dev *
G04 CreationDate: 2023-02-07 00:46:00 UTC *
G04 For: esh *
G04 Format: Gerber/RS-274X *
G04 PCB-Dimensions: 322000 195000 *
G04 PCB-Coordinate-Origin: lower left *
%MOIN*%
%FSLAX25Y25*%
%LNBOTTOM_COPPER_NONE_8*%
%ADD38C,0.0394*%
%ADD37C,0.1260*%
%ADD36C,0.0886*%
%ADD35C,0.1220*%
%ADD34C,0.0393*%
%ADD33C,0.0827*%
%ADD32C,0.0394*%
%ADD31C,0.0866*%
%ADD30C,0.1575*%
%ADD29C,0.0600*%
%ADD28C,0.0700*%
%ADD27C,0.0800*%
%ADD26C,0.0200*%
%ADD25C,0.0400*%
%ADD24C,0.0001*%
G54D24*G36*
X320079Y193031D02*Y2087D01*
X288567D01*
Y157043D01*
X292469D01*
X292567Y157036D01*
X292959Y157066D01*
X292959Y157066D01*
X293342Y157158D01*
X293705Y157309D01*
X294041Y157515D01*
X294340Y157770D01*
X294596Y158069D01*
X294801Y158405D01*
X294952Y158768D01*
X295044Y159151D01*
X295075Y159543D01*
X295067Y159641D01*
Y167445D01*
X295075Y167543D01*
X295044Y167935D01*
X295044Y167936D01*
X294952Y168318D01*
X294801Y168682D01*
X294596Y169017D01*
X294340Y169317D01*
X294041Y169572D01*
X293705Y169778D01*
X293342Y169928D01*
X292959Y170020D01*
X292567Y170051D01*
X292469Y170043D01*
X288567D01*
Y193031D01*
X320079D01*
G37*
G36*
X288567D02*Y170043D01*
X284665D01*
X284567Y170051D01*
X284175Y170020D01*
X284175Y170020D01*
X283792Y169928D01*
X283428Y169778D01*
X283093Y169572D01*
X282794Y169317D01*
X282538Y169017D01*
X282333Y168682D01*
X282182Y168318D01*
X282090Y167936D01*
X282059Y167543D01*
X282067Y167445D01*
Y159641D01*
X282059Y159543D01*
X282090Y159151D01*
X282090Y159151D01*
X282182Y158768D01*
X282333Y158405D01*
X282538Y158069D01*
X282794Y157770D01*
X283093Y157515D01*
X283428Y157309D01*
X283792Y157158D01*
X284175Y157066D01*
X284567Y157036D01*
X284665Y157043D01*
X288567D01*
Y2087D01*
X264990D01*
Y158112D01*
X265607Y157734D01*
X266552Y157342D01*
X267547Y157104D01*
X268567Y157023D01*
X269587Y157104D01*
X270582Y157342D01*
X271527Y157734D01*
X272399Y158268D01*
X273177Y158933D01*
X273842Y159711D01*
X274376Y160583D01*
X274768Y161528D01*
X275007Y162523D01*
X275067Y163543D01*
X275007Y164563D01*
X274768Y165558D01*
X274376Y166503D01*
X273842Y167376D01*
X273177Y168154D01*
X272399Y168818D01*
X271527Y169353D01*
X270582Y169744D01*
X269587Y169983D01*
X268567Y170063D01*
X267547Y169983D01*
X266552Y169744D01*
X265607Y169353D01*
X264990Y168975D01*
Y179481D01*
X265000Y179480D01*
X266020Y179560D01*
X267015Y179799D01*
X267960Y180191D01*
X268832Y180725D01*
X269610Y181390D01*
X270275Y182168D01*
X270809Y183040D01*
X271201Y183985D01*
X271440Y184980D01*
X271500Y186000D01*
X271440Y187020D01*
X271201Y188015D01*
X270809Y188960D01*
X270275Y189832D01*
X269610Y190610D01*
X268832Y191275D01*
X267960Y191809D01*
X267015Y192201D01*
X266020Y192440D01*
X265000Y192520D01*
X264990Y192519D01*
Y193031D01*
X288567D01*
G37*
G36*
X245191Y2087D02*Y157989D01*
X245607Y157734D01*
X246552Y157342D01*
X247547Y157104D01*
X248567Y157023D01*
X249587Y157104D01*
X250582Y157342D01*
X251527Y157734D01*
X252399Y158268D01*
X253177Y158933D01*
X253567Y159389D01*
X253957Y158933D01*
X254735Y158268D01*
X255607Y157734D01*
X256552Y157342D01*
X257547Y157104D01*
X258567Y157023D01*
X259587Y157104D01*
X260582Y157342D01*
X261527Y157734D01*
X262399Y158268D01*
X263177Y158933D01*
X263567Y159389D01*
X263957Y158933D01*
X264735Y158268D01*
X264990Y158112D01*
Y2087D01*
X245191D01*
G37*
G36*
X264990Y193031D02*Y192519D01*
X263980Y192440D01*
X262985Y192201D01*
X262040Y191809D01*
X261168Y191275D01*
X260390Y190610D01*
X259725Y189832D01*
X259191Y188960D01*
X258799Y188015D01*
X258560Y187020D01*
X258480Y186000D01*
X258560Y184980D01*
X258799Y183985D01*
X259191Y183040D01*
X259725Y182168D01*
X260390Y181390D01*
X261168Y180725D01*
X262040Y180191D01*
X262985Y179799D01*
X263980Y179560D01*
X264990Y179481D01*
Y168975D01*
X264735Y168818D01*
X263957Y168154D01*
X263567Y167697D01*
X263177Y168154D01*
X262399Y168818D01*
X261527Y169353D01*
X260582Y169744D01*
X259587Y169983D01*
X258567Y170063D01*
X257547Y169983D01*
X256552Y169744D01*
X255607Y169353D01*
X254735Y168818D01*
X253957Y168154D01*
X253567Y167697D01*
X253177Y168154D01*
X252399Y168818D01*
X251527Y169353D01*
X250582Y169744D01*
X249587Y169983D01*
X248567Y170063D01*
X247547Y169983D01*
X246552Y169744D01*
X245607Y169353D01*
X245191Y169098D01*
Y176082D01*
X245200Y176081D01*
X246142Y176156D01*
X247060Y176376D01*
X247932Y176737D01*
X248738Y177231D01*
X249456Y177844D01*
X250069Y178562D01*
X250563Y179368D01*
X250924Y180240D01*
X251144Y181158D01*
X251200Y182100D01*
X251144Y183042D01*
X250924Y183960D01*
X250563Y184832D01*
X250069Y185638D01*
X249456Y186356D01*
X248738Y186969D01*
X247932Y187463D01*
X247060Y187824D01*
X246142Y188044D01*
X245200Y188119D01*
X245191Y188118D01*
Y193031D01*
X264990D01*
G37*
G36*
X229693Y2087D02*Y157129D01*
X230582Y157342D01*
X231527Y157734D01*
X232399Y158268D01*
X233177Y158933D01*
X233567Y159389D01*
X233957Y158933D01*
X234735Y158268D01*
X235607Y157734D01*
X236552Y157342D01*
X237547Y157104D01*
X238567Y157023D01*
X239587Y157104D01*
X240582Y157342D01*
X241527Y157734D01*
X242399Y158268D01*
X243177Y158933D01*
X243567Y159389D01*
X243957Y158933D01*
X244735Y158268D01*
X245191Y157989D01*
Y2087D01*
X229693D01*
G37*
G36*
X245191Y193031D02*Y188118D01*
X244258Y188044D01*
X243340Y187824D01*
X242468Y187463D01*
X241662Y186969D01*
X240944Y186356D01*
X240331Y185638D01*
X239837Y184832D01*
X239476Y183960D01*
X239256Y183042D01*
X239181Y182100D01*
X239256Y181158D01*
X239476Y180240D01*
X239837Y179368D01*
X240331Y178562D01*
X240944Y177844D01*
X241662Y177231D01*
X242468Y176737D01*
X243340Y176376D01*
X244258Y176156D01*
X245191Y176082D01*
Y169098D01*
X244735Y168818D01*
X243957Y168154D01*
X243567Y167697D01*
X243177Y168154D01*
X242399Y168818D01*
X241527Y169353D01*
X240582Y169744D01*
X239587Y169983D01*
X238567Y170063D01*
X237547Y169983D01*
X236552Y169744D01*
X235607Y169353D01*
X234735Y168818D01*
X233957Y168154D01*
X233567Y167697D01*
X233177Y168154D01*
X232399Y168818D01*
X231527Y169353D01*
X230582Y169744D01*
X229693Y169958D01*
Y179245D01*
X229778Y179281D01*
X229879Y179343D01*
X229969Y179419D01*
X230045Y179509D01*
X230105Y179611D01*
X230322Y180080D01*
X230489Y180569D01*
X230609Y181072D01*
X230682Y181584D01*
X230706Y182100D01*
X230682Y182616D01*
X230609Y183128D01*
X230489Y183631D01*
X230322Y184120D01*
X230110Y184592D01*
X230049Y184693D01*
X229972Y184784D01*
X229882Y184861D01*
X229780Y184923D01*
X229693Y184960D01*
Y193031D01*
X245191D01*
G37*
G36*
X225202Y2087D02*Y157982D01*
X225607Y157734D01*
X226552Y157342D01*
X227547Y157104D01*
X228567Y157023D01*
X229587Y157104D01*
X229693Y157129D01*
Y2087D01*
X225202D01*
G37*
G36*
X229693Y193031D02*Y184960D01*
X229671Y184969D01*
X229555Y184997D01*
X229437Y185006D01*
X229319Y184997D01*
X229203Y184970D01*
X229093Y184924D01*
X228992Y184862D01*
X228902Y184786D01*
X228824Y184695D01*
X228762Y184594D01*
X228716Y184485D01*
X228689Y184369D01*
X228679Y184251D01*
X228688Y184132D01*
X228716Y184017D01*
X228763Y183908D01*
X228921Y183568D01*
X229042Y183212D01*
X229130Y182847D01*
X229182Y182475D01*
X229200Y182100D01*
X229182Y181725D01*
X229130Y181353D01*
X229042Y180988D01*
X228921Y180632D01*
X228767Y180290D01*
X228720Y180182D01*
X228693Y180067D01*
X228683Y179949D01*
X228693Y179832D01*
X228721Y179717D01*
X228766Y179608D01*
X228828Y179507D01*
X228905Y179418D01*
X228995Y179341D01*
X229095Y179280D01*
X229204Y179235D01*
X229319Y179207D01*
X229437Y179198D01*
X229555Y179208D01*
X229669Y179235D01*
X229693Y179245D01*
Y169958D01*
X229587Y169983D01*
X228567Y170063D01*
X227547Y169983D01*
X226552Y169744D01*
X225607Y169353D01*
X225202Y169105D01*
Y176594D01*
X225716Y176618D01*
X226228Y176691D01*
X226731Y176811D01*
X227220Y176978D01*
X227692Y177190D01*
X227793Y177251D01*
X227884Y177328D01*
X227961Y177418D01*
X228023Y177520D01*
X228069Y177629D01*
X228097Y177745D01*
X228106Y177863D01*
X228097Y177981D01*
X228070Y178097D01*
X228024Y178207D01*
X227962Y178308D01*
X227886Y178398D01*
X227795Y178476D01*
X227694Y178538D01*
X227585Y178584D01*
X227469Y178611D01*
X227351Y178621D01*
X227232Y178612D01*
X227117Y178584D01*
X227008Y178537D01*
X226668Y178379D01*
X226312Y178258D01*
X225947Y178170D01*
X225575Y178118D01*
X225202Y178100D01*
Y186100D01*
X225575Y186082D01*
X225947Y186030D01*
X226312Y185942D01*
X226668Y185821D01*
X227010Y185667D01*
X227118Y185620D01*
X227233Y185593D01*
X227351Y185583D01*
X227468Y185593D01*
X227583Y185621D01*
X227692Y185666D01*
X227793Y185728D01*
X227882Y185805D01*
X227959Y185895D01*
X228020Y185995D01*
X228065Y186104D01*
X228093Y186219D01*
X228102Y186337D01*
X228092Y186455D01*
X228065Y186569D01*
X228019Y186678D01*
X227957Y186779D01*
X227881Y186869D01*
X227791Y186945D01*
X227689Y187005D01*
X227220Y187222D01*
X226731Y187389D01*
X226228Y187509D01*
X225716Y187582D01*
X225202Y187606D01*
Y193031D01*
X229693D01*
G37*
G36*
X221527Y157734D02*X222399Y158268D01*
X223177Y158933D01*
X223567Y159389D01*
X223957Y158933D01*
X224735Y158268D01*
X225202Y157982D01*
Y2087D01*
X220707D01*
Y157394D01*
X221527Y157734D01*
G37*
G36*
X225202Y193031D02*Y187606D01*
X225200Y187606D01*
X224684Y187582D01*
X224172Y187509D01*
X223669Y187389D01*
X223180Y187222D01*
X222708Y187010D01*
X222607Y186949D01*
X222516Y186872D01*
X222439Y186782D01*
X222377Y186680D01*
X222331Y186571D01*
X222303Y186455D01*
X222294Y186337D01*
X222303Y186219D01*
X222330Y186103D01*
X222376Y185993D01*
X222438Y185892D01*
X222514Y185802D01*
X222605Y185724D01*
X222706Y185662D01*
X222815Y185616D01*
X222931Y185589D01*
X223049Y185579D01*
X223168Y185588D01*
X223283Y185616D01*
X223392Y185663D01*
X223732Y185821D01*
X224088Y185942D01*
X224453Y186030D01*
X224825Y186082D01*
X225200Y186100D01*
X225202Y186100D01*
Y178100D01*
X225200Y178100D01*
X224825Y178118D01*
X224453Y178170D01*
X224088Y178258D01*
X223732Y178379D01*
X223390Y178533D01*
X223282Y178580D01*
X223167Y178607D01*
X223049Y178617D01*
X222932Y178607D01*
X222817Y178579D01*
X222708Y178534D01*
X222607Y178472D01*
X222518Y178395D01*
X222441Y178305D01*
X222380Y178205D01*
X222335Y178096D01*
X222307Y177981D01*
X222298Y177863D01*
X222308Y177745D01*
X222335Y177631D01*
X222381Y177522D01*
X222443Y177421D01*
X222519Y177331D01*
X222609Y177255D01*
X222711Y177195D01*
X223180Y176978D01*
X223669Y176811D01*
X224172Y176691D01*
X224684Y176618D01*
X225200Y176594D01*
X225202Y176594D01*
Y169105D01*
X224735Y168818D01*
X223957Y168154D01*
X223567Y167697D01*
X223177Y168154D01*
X222399Y168818D01*
X221527Y169353D01*
X220707Y169692D01*
Y179240D01*
X220729Y179231D01*
X220845Y179203D01*
X220963Y179194D01*
X221081Y179203D01*
X221197Y179230D01*
X221307Y179276D01*
X221408Y179338D01*
X221498Y179414D01*
X221576Y179505D01*
X221638Y179606D01*
X221684Y179715D01*
X221711Y179831D01*
X221721Y179949D01*
X221712Y180068D01*
X221684Y180183D01*
X221637Y180292D01*
X221479Y180632D01*
X221358Y180988D01*
X221270Y181353D01*
X221218Y181725D01*
X221200Y182100D01*
X221218Y182475D01*
X221270Y182847D01*
X221358Y183212D01*
X221479Y183568D01*
X221633Y183910D01*
X221680Y184018D01*
X221707Y184133D01*
X221717Y184251D01*
X221707Y184368D01*
X221679Y184483D01*
X221634Y184592D01*
X221572Y184693D01*
X221495Y184782D01*
X221405Y184859D01*
X221305Y184920D01*
X221196Y184965D01*
X221081Y184993D01*
X220963Y185002D01*
X220845Y184992D01*
X220731Y184965D01*
X220707Y184955D01*
Y193031D01*
X225202D01*
G37*
G36*
X220707D02*Y184955D01*
X220622Y184919D01*
X220521Y184857D01*
X220431Y184781D01*
X220355Y184691D01*
X220295Y184589D01*
X220078Y184120D01*
X219911Y183631D01*
X219791Y183128D01*
X219718Y182616D01*
X219694Y182100D01*
X219718Y181584D01*
X219791Y181072D01*
X219911Y180569D01*
X220078Y180080D01*
X220290Y179608D01*
X220351Y179507D01*
X220428Y179416D01*
X220518Y179339D01*
X220620Y179277D01*
X220707Y179240D01*
Y169692D01*
X220582Y169744D01*
X219587Y169983D01*
X218567Y170063D01*
X217547Y169983D01*
X216552Y169744D01*
X215607Y169353D01*
X214735Y168818D01*
X213957Y168154D01*
X213292Y167376D01*
X212758Y166503D01*
X212366Y165558D01*
X212127Y164563D01*
X212047Y163543D01*
X212127Y162523D01*
X212366Y161528D01*
X212758Y160583D01*
X213292Y159711D01*
X213957Y158933D01*
X214735Y158268D01*
X215607Y157734D01*
X216552Y157342D01*
X217547Y157104D01*
X218567Y157023D01*
X219587Y157104D01*
X220582Y157342D01*
X220707Y157394D01*
Y2087D01*
X208866D01*
Y176800D01*
X213241D01*
X213300Y176795D01*
X213535Y176814D01*
X213535Y176814D01*
X213765Y176869D01*
X213983Y176959D01*
X214184Y177083D01*
X214364Y177236D01*
X214517Y177416D01*
X214641Y177617D01*
X214731Y177835D01*
X214786Y178065D01*
X214805Y178300D01*
X214800Y178359D01*
Y186241D01*
X214805Y186300D01*
X214786Y186535D01*
X214786Y186535D01*
X214731Y186765D01*
X214641Y186983D01*
X214517Y187184D01*
X214364Y187364D01*
X214184Y187517D01*
X213983Y187641D01*
X213765Y187731D01*
X213535Y187786D01*
X213300Y187805D01*
X213241Y187800D01*
X208866D01*
Y193031D01*
X220707D01*
G37*
G36*
X208866D02*Y187800D01*
X205359D01*
X205300Y187805D01*
X205065Y187786D01*
X205065Y187786D01*
X204835Y187731D01*
X204617Y187641D01*
X204416Y187517D01*
X204236Y187364D01*
X204083Y187184D01*
X203959Y186983D01*
X203869Y186765D01*
X203814Y186535D01*
X203795Y186300D01*
X203800Y186241D01*
Y185176D01*
X203705Y185161D01*
X203554Y185113D01*
X203413Y185043D01*
X203284Y184951D01*
X203172Y184840D01*
X203078Y184712D01*
X203005Y184572D01*
X202955Y184422D01*
X202929Y184266D01*
X202928Y184108D01*
X202952Y183952D01*
X203002Y183802D01*
X203134Y183440D01*
X203226Y183066D01*
X203281Y182685D01*
X203300Y182300D01*
X203281Y181915D01*
X203226Y181534D01*
X203134Y181160D01*
X203007Y180796D01*
X202956Y180647D01*
X202933Y180492D01*
X202934Y180334D01*
X202960Y180179D01*
X203009Y180030D01*
X203082Y179890D01*
X203175Y179763D01*
X203287Y179653D01*
X203415Y179561D01*
X203556Y179491D01*
X203706Y179443D01*
X203800Y179429D01*
Y178359D01*
X203795Y178300D01*
X203814Y178065D01*
X203814Y178065D01*
X203869Y177835D01*
X203959Y177617D01*
X204083Y177416D01*
X204236Y177236D01*
X204416Y177083D01*
X204617Y176959D01*
X204835Y176869D01*
X205065Y176814D01*
X205300Y176795D01*
X205359Y176800D01*
X208866D01*
Y2087D01*
X199302D01*
Y176293D01*
X199878Y176321D01*
X200450Y176404D01*
X201012Y176542D01*
X201558Y176734D01*
X201700Y176804D01*
X201829Y176896D01*
X201941Y177007D01*
X202035Y177134D01*
X202108Y177274D01*
X202158Y177424D01*
X202184Y177580D01*
X202185Y177738D01*
X202161Y177895D01*
X202113Y178046D01*
X202043Y178187D01*
X201951Y178316D01*
X201840Y178428D01*
X201712Y178522D01*
X201572Y178595D01*
X201422Y178645D01*
X201266Y178671D01*
X201108Y178672D01*
X200952Y178648D01*
X200802Y178598D01*
X200440Y178466D01*
X200066Y178374D01*
X199685Y178319D01*
X199302Y178300D01*
Y186300D01*
X199685Y186281D01*
X200066Y186226D01*
X200440Y186134D01*
X200804Y186007D01*
X200953Y185956D01*
X201108Y185933D01*
X201266Y185934D01*
X201421Y185960D01*
X201570Y186009D01*
X201710Y186082D01*
X201837Y186175D01*
X201947Y186287D01*
X202039Y186415D01*
X202109Y186556D01*
X202157Y186706D01*
X202180Y186862D01*
X202179Y187019D01*
X202153Y187175D01*
X202104Y187324D01*
X202031Y187464D01*
X201938Y187590D01*
X201825Y187701D01*
X201697Y187792D01*
X201556Y187860D01*
X201012Y188058D01*
X200450Y188196D01*
X199878Y188279D01*
X199302Y188307D01*
Y193031D01*
X208866D01*
G37*
G36*
X199302D02*Y188307D01*
X199300Y188307D01*
X198722Y188279D01*
X198150Y188196D01*
X197588Y188058D01*
X197042Y187866D01*
X196900Y187796D01*
X196771Y187704D01*
X196659Y187593D01*
X196565Y187466D01*
X196492Y187326D01*
X196442Y187176D01*
X196416Y187020D01*
X196415Y186862D01*
X196439Y186705D01*
X196487Y186554D01*
X196557Y186413D01*
X196649Y186284D01*
X196760Y186172D01*
X196888Y186078D01*
X197028Y186005D01*
X197178Y185955D01*
X197334Y185929D01*
X197492Y185928D01*
X197648Y185952D01*
X197798Y186002D01*
X198160Y186134D01*
X198534Y186226D01*
X198915Y186281D01*
X199300Y186300D01*
X199302Y186300D01*
Y178300D01*
X199300Y178300D01*
X198915Y178319D01*
X198534Y178374D01*
X198160Y178466D01*
X197796Y178593D01*
X197647Y178644D01*
X197492Y178667D01*
X197334Y178666D01*
X197179Y178640D01*
X197030Y178591D01*
X196890Y178518D01*
X196763Y178425D01*
X196653Y178313D01*
X196561Y178185D01*
X196491Y178044D01*
X196443Y177894D01*
X196420Y177738D01*
X196421Y177581D01*
X196447Y177425D01*
X196496Y177276D01*
X196569Y177136D01*
X196662Y177010D01*
X196774Y176899D01*
X196903Y176808D01*
X197044Y176740D01*
X197588Y176542D01*
X198150Y176404D01*
X198722Y176321D01*
X199300Y176293D01*
X199302Y176293D01*
Y2087D01*
X194482D01*
Y179433D01*
X194580Y179416D01*
X194738Y179415D01*
X194895Y179439D01*
X195046Y179487D01*
X195187Y179557D01*
X195316Y179649D01*
X195428Y179760D01*
X195522Y179888D01*
X195595Y180028D01*
X195645Y180178D01*
X195671Y180334D01*
X195672Y180492D01*
X195648Y180648D01*
X195598Y180798D01*
X195466Y181160D01*
X195374Y181534D01*
X195319Y181915D01*
X195300Y182300D01*
X195319Y182685D01*
X195374Y183066D01*
X195466Y183440D01*
X195593Y183804D01*
X195644Y183953D01*
X195667Y184108D01*
X195666Y184266D01*
X195640Y184421D01*
X195591Y184570D01*
X195518Y184710D01*
X195425Y184837D01*
X195313Y184947D01*
X195185Y185039D01*
X195044Y185109D01*
X194894Y185157D01*
X194738Y185180D01*
X194581Y185179D01*
X194482Y185163D01*
Y193031D01*
X199302D01*
G37*
G36*
X194482D02*Y185163D01*
X194425Y185153D01*
X194276Y185104D01*
X194136Y185031D01*
X194010Y184938D01*
X193899Y184826D01*
X193808Y184697D01*
X193740Y184556D01*
X193542Y184012D01*
X193404Y183450D01*
X193321Y182878D01*
X193293Y182300D01*
X193321Y181722D01*
X193404Y181150D01*
X193542Y180588D01*
X193734Y180042D01*
X193804Y179900D01*
X193896Y179771D01*
X194007Y179659D01*
X194134Y179565D01*
X194274Y179492D01*
X194424Y179442D01*
X194482Y179433D01*
Y2087D01*
X180490D01*
Y86481D01*
X180500Y86480D01*
X181520Y86560D01*
X182515Y86799D01*
X183460Y87191D01*
X184332Y87725D01*
X185110Y88390D01*
X185775Y89168D01*
X186309Y90040D01*
X186701Y90985D01*
X186940Y91980D01*
X187000Y93000D01*
X186940Y94020D01*
X186701Y95015D01*
X186309Y95960D01*
X185775Y96832D01*
X185110Y97610D01*
X184332Y98275D01*
X183460Y98809D01*
X182515Y99201D01*
X181520Y99440D01*
X180500Y99520D01*
X180490Y99519D01*
Y101907D01*
X181233Y102363D01*
X181990Y103010D01*
X182637Y103767D01*
X183158Y104617D01*
X183539Y105538D01*
X183772Y106507D01*
X183831Y107500D01*
X183772Y108493D01*
X183539Y109462D01*
X183158Y110383D01*
X182637Y111233D01*
X181990Y111990D01*
X181500Y112409D01*
Y145091D01*
X181990Y145510D01*
X182637Y146267D01*
X183158Y147117D01*
X183539Y148038D01*
X183772Y149007D01*
X183831Y150000D01*
X183772Y150993D01*
X183539Y151962D01*
X183158Y152883D01*
X182637Y153733D01*
X181990Y154490D01*
X181233Y155137D01*
X180490Y155593D01*
Y193031D01*
X194482D01*
G37*
G36*
X180490D02*Y155593D01*
X180383Y155658D01*
X179462Y156039D01*
X178493Y156272D01*
X177500Y156350D01*
X176507Y156272D01*
X175538Y156039D01*
X174617Y155658D01*
X173767Y155137D01*
X173010Y154490D01*
X172363Y153733D01*
X171842Y152883D01*
X171461Y151962D01*
X171228Y150993D01*
X171150Y150000D01*
X171228Y149007D01*
X171461Y148038D01*
X171842Y147117D01*
X172363Y146267D01*
X173010Y145510D01*
X173500Y145091D01*
Y112409D01*
X173010Y111990D01*
X172363Y111233D01*
X171842Y110383D01*
X171461Y109462D01*
X171228Y108493D01*
X171150Y107500D01*
X171228Y106507D01*
X171461Y105538D01*
X171842Y104617D01*
X172363Y103767D01*
X173010Y103010D01*
X173767Y102363D01*
X174617Y101842D01*
X175538Y101461D01*
X176507Y101228D01*
X177500Y101150D01*
X178493Y101228D01*
X179462Y101461D01*
X180383Y101842D01*
X180490Y101907D01*
Y99519D01*
X179480Y99440D01*
X178485Y99201D01*
X177540Y98809D01*
X176668Y98275D01*
X175890Y97610D01*
X175225Y96832D01*
X174691Y95960D01*
X174299Y95015D01*
X174060Y94020D01*
X173980Y93000D01*
X174060Y91980D01*
X174299Y90985D01*
X174691Y90040D01*
X175225Y89168D01*
X175890Y88390D01*
X176668Y87725D01*
X177540Y87191D01*
X178485Y86799D01*
X179480Y86560D01*
X180490Y86481D01*
Y2087D01*
X155992D01*
Y86484D01*
X156000Y86483D01*
X156863Y86551D01*
X157705Y86753D01*
X158505Y87084D01*
X159243Y87537D01*
X159901Y88099D01*
X160463Y88757D01*
X160916Y89495D01*
X161247Y90295D01*
X161449Y91137D01*
X161500Y92000D01*
X161449Y92863D01*
X161247Y93705D01*
X160916Y94505D01*
X160463Y95243D01*
X159901Y95901D01*
X159243Y96463D01*
X158505Y96916D01*
X157705Y97247D01*
X156863Y97449D01*
X156000Y97517D01*
X155992Y97516D01*
Y146484D01*
X156000Y146483D01*
X156863Y146551D01*
X157705Y146753D01*
X158505Y147084D01*
X159243Y147537D01*
X159901Y148099D01*
X160463Y148757D01*
X160916Y149495D01*
X161247Y150295D01*
X161449Y151137D01*
X161500Y152000D01*
X161449Y152863D01*
X161247Y153705D01*
X160916Y154505D01*
X160463Y155243D01*
X159901Y155901D01*
X159243Y156463D01*
X158505Y156916D01*
X157705Y157247D01*
X156863Y157449D01*
X156000Y157517D01*
X155992Y157516D01*
Y160481D01*
X156000Y160480D01*
X157020Y160560D01*
X158015Y160799D01*
X158960Y161191D01*
X159832Y161725D01*
X160610Y162390D01*
X161275Y163168D01*
X161809Y164040D01*
X162201Y164985D01*
X162440Y165980D01*
X162500Y167000D01*
X162440Y168020D01*
X162201Y169015D01*
X161809Y169960D01*
X161275Y170832D01*
X160610Y171610D01*
X159832Y172275D01*
X158960Y172809D01*
X158015Y173201D01*
X157020Y173440D01*
X156000Y173520D01*
X155992Y173519D01*
Y193031D01*
X180490D01*
G37*
G36*
X155137Y157449D02*X154295Y157247D01*
X153495Y156916D01*
X152757Y156463D01*
X152099Y155901D01*
X151537Y155243D01*
X151084Y154505D01*
X151000Y154301D01*
X150916Y154505D01*
X150463Y155243D01*
X149901Y155901D01*
X149243Y156463D01*
X148505Y156916D01*
X147705Y157247D01*
X146863Y157449D01*
X146000Y157517D01*
X145990Y157516D01*
Y160481D01*
X146000Y160480D01*
X147020Y160560D01*
X148015Y160799D01*
X148960Y161191D01*
X149832Y161725D01*
X150610Y162390D01*
X151000Y162846D01*
X151390Y162390D01*
X152168Y161725D01*
X153040Y161191D01*
X153985Y160799D01*
X154980Y160560D01*
X155992Y160481D01*
Y157516D01*
X155137Y157449D01*
G37*
G36*
X145990Y2087D02*Y146484D01*
X146000Y146483D01*
X146863Y146551D01*
X147705Y146753D01*
X148505Y147084D01*
X149243Y147537D01*
X149901Y148099D01*
X150463Y148757D01*
X150916Y149495D01*
X151000Y149699D01*
X151084Y149495D01*
X151537Y148757D01*
X152099Y148099D01*
X152757Y147537D01*
X153495Y147084D01*
X154295Y146753D01*
X155137Y146551D01*
X155992Y146484D01*
Y97516D01*
X155137Y97449D01*
X154295Y97247D01*
X153495Y96916D01*
X152757Y96463D01*
X152099Y95901D01*
X151537Y95243D01*
X151084Y94505D01*
X150753Y93705D01*
X150551Y92863D01*
X150483Y92000D01*
X150551Y91137D01*
X150753Y90295D01*
X151084Y89495D01*
X151537Y88757D01*
X152099Y88099D01*
X152757Y87537D01*
X153495Y87084D01*
X154295Y86753D01*
X155137Y86551D01*
X155992Y86484D01*
Y2087D01*
X145990D01*
G37*
G36*
X155992Y193031D02*Y173519D01*
X154980Y173440D01*
X153985Y173201D01*
X153040Y172809D01*
X152168Y172275D01*
X151390Y171610D01*
X151000Y171154D01*
X150610Y171610D01*
X149832Y172275D01*
X148960Y172809D01*
X148015Y173201D01*
X147020Y173440D01*
X146000Y173520D01*
X145990Y173519D01*
Y193031D01*
X155992D01*
G37*
G36*
X108505Y147084D02*X109243Y147537D01*
X109901Y148099D01*
X110463Y148757D01*
X110916Y149495D01*
X111000Y149699D01*
X111084Y149495D01*
X111537Y148757D01*
X112099Y148099D01*
X112757Y147537D01*
X113495Y147084D01*
X114295Y146753D01*
X115137Y146551D01*
X116000Y146483D01*
X116863Y146551D01*
X117705Y146753D01*
X118505Y147084D01*
X119243Y147537D01*
X119901Y148099D01*
X120463Y148757D01*
X120916Y149495D01*
X121247Y150295D01*
X121449Y151137D01*
X121500Y152000D01*
X121449Y152863D01*
X121247Y153705D01*
X120916Y154505D01*
X120463Y155243D01*
X119901Y155901D01*
X119243Y156463D01*
X118505Y156916D01*
X117705Y157247D01*
X116863Y157449D01*
X116000Y157517D01*
X115137Y157449D01*
X114295Y157247D01*
X113495Y156916D01*
X112757Y156463D01*
X112099Y155901D01*
X111537Y155243D01*
X111084Y154505D01*
X111000Y154301D01*
X110916Y154505D01*
X110463Y155243D01*
X109901Y155901D01*
X109243Y156463D01*
X108505Y156916D01*
X108268Y157014D01*
Y174986D01*
X108505Y175084D01*
X109243Y175537D01*
X109901Y176099D01*
X110463Y176757D01*
X110916Y177495D01*
X111000Y177699D01*
X111084Y177495D01*
X111537Y176757D01*
X112099Y176099D01*
X112757Y175537D01*
X113495Y175084D01*
X114295Y174753D01*
X115137Y174551D01*
X116000Y174483D01*
X116863Y174551D01*
X117705Y174753D01*
X118505Y175084D01*
X119243Y175537D01*
X119901Y176099D01*
X120463Y176757D01*
X120500Y176817D01*
Y176578D01*
X120494Y176500D01*
X120519Y176186D01*
X120519Y176186D01*
X120592Y175880D01*
X120712Y175589D01*
X120877Y175321D01*
X121081Y175081D01*
X121321Y174877D01*
X121589Y174712D01*
X121880Y174592D01*
X122186Y174519D01*
X122500Y174494D01*
X122578Y174500D01*
X129422D01*
X129500Y174494D01*
X129814Y174519D01*
X129814Y174519D01*
X130120Y174592D01*
X130411Y174712D01*
X130679Y174877D01*
X130919Y175081D01*
X131123Y175321D01*
X131288Y175589D01*
X131408Y175880D01*
X131481Y176186D01*
X131506Y176500D01*
X131500Y176578D01*
Y183422D01*
X131506Y183500D01*
X131481Y183814D01*
X131481Y183814D01*
X131408Y184120D01*
X131288Y184411D01*
X131123Y184679D01*
X130919Y184919D01*
X130679Y185123D01*
X130411Y185288D01*
X130120Y185408D01*
X129814Y185481D01*
X129500Y185506D01*
X129422Y185500D01*
X122578D01*
X122500Y185506D01*
X122186Y185481D01*
X122186Y185481D01*
X121880Y185408D01*
X121589Y185288D01*
X121321Y185123D01*
X121081Y184919D01*
X120877Y184679D01*
X120712Y184411D01*
X120592Y184120D01*
X120519Y183814D01*
X120494Y183500D01*
X120500Y183422D01*
Y183183D01*
X120463Y183243D01*
X119901Y183901D01*
X119243Y184463D01*
X118505Y184916D01*
X117705Y185247D01*
X116863Y185449D01*
X116000Y185517D01*
X115137Y185449D01*
X114295Y185247D01*
X113495Y184916D01*
X112757Y184463D01*
X112099Y183901D01*
X111537Y183243D01*
X111084Y182505D01*
X111000Y182301D01*
X110916Y182505D01*
X110463Y183243D01*
X109901Y183901D01*
X109243Y184463D01*
X108505Y184916D01*
X108268Y185014D01*
Y193031D01*
X145990D01*
Y173519D01*
X144980Y173440D01*
X143985Y173201D01*
X143040Y172809D01*
X142168Y172275D01*
X141390Y171610D01*
X141000Y171154D01*
X140610Y171610D01*
X139832Y172275D01*
X138960Y172809D01*
X138015Y173201D01*
X137020Y173440D01*
X136000Y173520D01*
X134980Y173440D01*
X133985Y173201D01*
X133040Y172809D01*
X132168Y172275D01*
X131390Y171610D01*
X130725Y170832D01*
X130191Y169960D01*
X129799Y169015D01*
X129560Y168020D01*
X129480Y167000D01*
X129560Y165980D01*
X129799Y164985D01*
X130191Y164040D01*
X130725Y163168D01*
X131390Y162390D01*
X132168Y161725D01*
X133040Y161191D01*
X133985Y160799D01*
X134980Y160560D01*
X136000Y160480D01*
X137020Y160560D01*
X138015Y160799D01*
X138960Y161191D01*
X139832Y161725D01*
X140610Y162390D01*
X141000Y162846D01*
X141390Y162390D01*
X142168Y161725D01*
X143040Y161191D01*
X143985Y160799D01*
X144980Y160560D01*
X145990Y160481D01*
Y157516D01*
X145137Y157449D01*
X144295Y157247D01*
X143495Y156916D01*
X142757Y156463D01*
X142099Y155901D01*
X141537Y155243D01*
X141084Y154505D01*
X141000Y154301D01*
X140916Y154505D01*
X140463Y155243D01*
X139901Y155901D01*
X139243Y156463D01*
X138505Y156916D01*
X137705Y157247D01*
X136863Y157449D01*
X136000Y157517D01*
X135137Y157449D01*
X134295Y157247D01*
X133495Y156916D01*
X132757Y156463D01*
X132099Y155901D01*
X131537Y155243D01*
X131084Y154505D01*
X130753Y153705D01*
X130551Y152863D01*
X130483Y152000D01*
X130551Y151137D01*
X130753Y150295D01*
X131084Y149495D01*
X131537Y148757D01*
X132099Y148099D01*
X132757Y147537D01*
X133495Y147084D01*
X134295Y146753D01*
X135137Y146551D01*
X136000Y146483D01*
X136863Y146551D01*
X137705Y146753D01*
X138505Y147084D01*
X139243Y147537D01*
X139901Y148099D01*
X140463Y148757D01*
X140916Y149495D01*
X141000Y149699D01*
X141084Y149495D01*
X141537Y148757D01*
X142099Y148099D01*
X142757Y147537D01*
X143495Y147084D01*
X144295Y146753D01*
X145137Y146551D01*
X145990Y146484D01*
Y2087D01*
X108268D01*
Y27126D01*
X108775Y26531D01*
X109553Y25867D01*
X110426Y25332D01*
X111371Y24941D01*
X112366Y24702D01*
X113386Y24622D01*
X114406Y24702D01*
X115401Y24941D01*
X116346Y25332D01*
X117218Y25867D01*
X117996Y26531D01*
X118661Y27309D01*
X119195Y28182D01*
X119587Y29127D01*
X119676Y29498D01*
X119799Y28985D01*
X120191Y28040D01*
X120725Y27168D01*
X121390Y26390D01*
X121846Y26000D01*
X121390Y25610D01*
X120725Y24832D01*
X120191Y23960D01*
X119799Y23015D01*
X119560Y22020D01*
X119480Y21000D01*
X119560Y19980D01*
X119799Y18985D01*
X120191Y18040D01*
X120725Y17168D01*
X120735Y17157D01*
X120526Y17029D01*
X120227Y16773D01*
X119971Y16474D01*
X119766Y16138D01*
X119615Y15775D01*
X119523Y15392D01*
X119492Y15000D01*
X119500Y14902D01*
Y7098D01*
X119492Y7000D01*
X119523Y6608D01*
X119523Y6608D01*
X119615Y6225D01*
X119766Y5862D01*
X119971Y5526D01*
X120227Y5227D01*
X120526Y4971D01*
X120862Y4766D01*
X121225Y4615D01*
X121608Y4523D01*
X122000Y4492D01*
X122098Y4500D01*
X129902D01*
X130000Y4492D01*
X130392Y4523D01*
X130392Y4523D01*
X130775Y4615D01*
X131138Y4766D01*
X131474Y4971D01*
X131773Y5227D01*
X132029Y5526D01*
X132234Y5862D01*
X132385Y6225D01*
X132477Y6608D01*
X132508Y7000D01*
X132500Y7098D01*
Y14902D01*
X132508Y15000D01*
X132477Y15392D01*
X132477Y15392D01*
X132385Y15775D01*
X132234Y16138D01*
X132029Y16474D01*
X131773Y16773D01*
X131474Y17029D01*
X131265Y17157D01*
X131275Y17168D01*
X131809Y18040D01*
X132201Y18985D01*
X132440Y19980D01*
X132500Y21000D01*
X132440Y22020D01*
X132201Y23015D01*
X131809Y23960D01*
X131275Y24832D01*
X130610Y25610D01*
X130154Y26000D01*
X130610Y26390D01*
X131275Y27168D01*
X131809Y28040D01*
X132201Y28985D01*
X132440Y29980D01*
X132500Y31000D01*
X132440Y32020D01*
X132201Y33015D01*
X131809Y33960D01*
X131275Y34832D01*
X130610Y35610D01*
X130154Y36000D01*
X130610Y36390D01*
X131275Y37168D01*
X131809Y38040D01*
X132201Y38985D01*
X132440Y39980D01*
X132500Y41000D01*
X132440Y42020D01*
X132201Y43015D01*
X131809Y43960D01*
X131275Y44832D01*
X130610Y45610D01*
X130154Y46000D01*
X130610Y46390D01*
X131275Y47168D01*
X131809Y48040D01*
X132201Y48985D01*
X132440Y49980D01*
X132500Y51000D01*
X132440Y52020D01*
X132201Y53015D01*
X131809Y53960D01*
X131275Y54832D01*
X130610Y55610D01*
X129832Y56275D01*
X128960Y56809D01*
X128015Y57201D01*
X127020Y57440D01*
X126000Y57520D01*
X124980Y57440D01*
X123985Y57201D01*
X123040Y56809D01*
X122168Y56275D01*
X121390Y55610D01*
X120725Y54832D01*
X120191Y53960D01*
X119799Y53015D01*
X119560Y52020D01*
X119480Y51000D01*
X119560Y49980D01*
X119799Y48985D01*
X120191Y48040D01*
X120725Y47168D01*
X121390Y46390D01*
X121846Y46000D01*
X121390Y45610D01*
X120725Y44832D01*
X120191Y43960D01*
X119799Y43015D01*
X119560Y42020D01*
X119480Y41000D01*
X119560Y39980D01*
X119799Y38985D01*
X120191Y38040D01*
X120725Y37168D01*
X121390Y36390D01*
X121846Y36000D01*
X121390Y35610D01*
X120725Y34832D01*
X120191Y33960D01*
X119799Y33015D01*
X119710Y32644D01*
X119587Y33157D01*
X119195Y34102D01*
X118661Y34974D01*
X117996Y35752D01*
X117218Y36417D01*
X116346Y36951D01*
X115401Y37343D01*
X114406Y37582D01*
X113386Y37662D01*
X112366Y37582D01*
X111371Y37343D01*
X110426Y36951D01*
X109553Y36417D01*
X108775Y35752D01*
X108268Y35158D01*
Y54899D01*
X108611Y54757D01*
X108994Y54665D01*
X109386Y54634D01*
X109484Y54642D01*
X117288D01*
X117386Y54634D01*
X117778Y54665D01*
X117778Y54665D01*
X118161Y54757D01*
X118524Y54907D01*
X118860Y55113D01*
X119159Y55369D01*
X119415Y55668D01*
X119620Y56003D01*
X119771Y56367D01*
X119863Y56749D01*
X119894Y57142D01*
X119886Y57240D01*
Y65044D01*
X119894Y65142D01*
X119863Y65534D01*
X119863Y65534D01*
X119771Y65917D01*
X119620Y66280D01*
X119415Y66616D01*
X119159Y66915D01*
X118860Y67171D01*
X118524Y67376D01*
X118161Y67527D01*
X117778Y67619D01*
X117386Y67649D01*
X117288Y67642D01*
X109484D01*
X109386Y67649D01*
X108994Y67619D01*
X108994Y67619D01*
X108611Y67527D01*
X108268Y67385D01*
Y70904D01*
X108960Y71191D01*
X109832Y71725D01*
X110610Y72390D01*
X111000Y72846D01*
X111390Y72390D01*
X112168Y71725D01*
X113040Y71191D01*
X113985Y70799D01*
X114980Y70560D01*
X116000Y70480D01*
X117020Y70560D01*
X118015Y70799D01*
X118960Y71191D01*
X119522Y71535D01*
X119480Y71000D01*
X119560Y69980D01*
X119799Y68985D01*
X120191Y68040D01*
X120725Y67168D01*
X121390Y66390D01*
X122168Y65725D01*
X123040Y65191D01*
X123985Y64799D01*
X124980Y64560D01*
X126000Y64480D01*
X127020Y64560D01*
X128015Y64799D01*
X128960Y65191D01*
X129832Y65725D01*
X130610Y66390D01*
X131275Y67168D01*
X131809Y68040D01*
X132201Y68985D01*
X132440Y69980D01*
X132500Y71000D01*
X132440Y72020D01*
X132201Y73015D01*
X131809Y73960D01*
X131275Y74832D01*
X130610Y75610D01*
X129832Y76275D01*
X128960Y76809D01*
X128015Y77201D01*
X127020Y77440D01*
X126000Y77520D01*
X124980Y77440D01*
X123985Y77201D01*
X123040Y76809D01*
X122468Y76459D01*
X122500Y77000D01*
X122440Y78020D01*
X122201Y79015D01*
X121809Y79960D01*
X121275Y80832D01*
X120610Y81610D01*
X119832Y82275D01*
X118960Y82809D01*
X118015Y83201D01*
X117020Y83440D01*
X116000Y83520D01*
X114980Y83440D01*
X113985Y83201D01*
X113040Y82809D01*
X112168Y82275D01*
X111390Y81610D01*
X111000Y81154D01*
X110610Y81610D01*
X109832Y82275D01*
X108960Y82809D01*
X108268Y83096D01*
Y86986D01*
X108505Y87084D01*
X109243Y87537D01*
X109901Y88099D01*
X110463Y88757D01*
X110916Y89495D01*
X111000Y89699D01*
X111084Y89495D01*
X111537Y88757D01*
X112099Y88099D01*
X112757Y87537D01*
X113495Y87084D01*
X114295Y86753D01*
X115137Y86551D01*
X116000Y86483D01*
X116863Y86551D01*
X117705Y86753D01*
X118505Y87084D01*
X119243Y87537D01*
X119901Y88099D01*
X120463Y88757D01*
X120916Y89495D01*
X121000Y89699D01*
X121084Y89495D01*
X121537Y88757D01*
X122099Y88099D01*
X122757Y87537D01*
X123495Y87084D01*
X124295Y86753D01*
X125137Y86551D01*
X126000Y86483D01*
X126863Y86551D01*
X127705Y86753D01*
X128505Y87084D01*
X129243Y87537D01*
X129901Y88099D01*
X130463Y88757D01*
X130916Y89495D01*
X131000Y89699D01*
X131084Y89495D01*
X131537Y88757D01*
X132099Y88099D01*
X132757Y87537D01*
X133495Y87084D01*
X134295Y86753D01*
X135137Y86551D01*
X136000Y86483D01*
X136863Y86551D01*
X137705Y86753D01*
X138505Y87084D01*
X139243Y87537D01*
X139901Y88099D01*
X140463Y88757D01*
X140916Y89495D01*
X141247Y90295D01*
X141449Y91137D01*
X141500Y92000D01*
X141449Y92863D01*
X141247Y93705D01*
X140916Y94505D01*
X140463Y95243D01*
X139901Y95901D01*
X139243Y96463D01*
X138505Y96916D01*
X137705Y97247D01*
X136863Y97449D01*
X136000Y97517D01*
X135137Y97449D01*
X134295Y97247D01*
X133495Y96916D01*
X132757Y96463D01*
X132099Y95901D01*
X131537Y95243D01*
X131084Y94505D01*
X131000Y94301D01*
X130916Y94505D01*
X130463Y95243D01*
X129901Y95901D01*
X129243Y96463D01*
X128505Y96916D01*
X127705Y97247D01*
X126863Y97449D01*
X126000Y97517D01*
X125137Y97449D01*
X124295Y97247D01*
X123495Y96916D01*
X122757Y96463D01*
X122099Y95901D01*
X121537Y95243D01*
X121084Y94505D01*
X121000Y94301D01*
X120916Y94505D01*
X120463Y95243D01*
X119901Y95901D01*
X119243Y96463D01*
X118505Y96916D01*
X117705Y97247D01*
X116863Y97449D01*
X116000Y97517D01*
X115137Y97449D01*
X114295Y97247D01*
X113495Y96916D01*
X112757Y96463D01*
X112099Y95901D01*
X111537Y95243D01*
X111084Y94505D01*
X111000Y94301D01*
X110916Y94505D01*
X110463Y95243D01*
X109901Y95901D01*
X109243Y96463D01*
X108505Y96916D01*
X108268Y97014D01*
Y146986D01*
X108505Y147084D01*
G37*
G36*
X108015Y83201D02*X107020Y83440D01*
X106000Y83520D01*
X104980Y83440D01*
X103985Y83201D01*
X103040Y82809D01*
X102168Y82275D01*
X101390Y81610D01*
X101000Y81154D01*
X100610Y81610D01*
X99832Y82275D01*
X98960Y82809D01*
X98015Y83201D01*
X97020Y83440D01*
X96000Y83520D01*
X94980Y83440D01*
X93985Y83201D01*
X93040Y82809D01*
X92168Y82275D01*
X91390Y81610D01*
X91000Y81154D01*
X90610Y81610D01*
X89832Y82275D01*
X88960Y82809D01*
X88015Y83201D01*
X87020Y83440D01*
X86000Y83520D01*
X84980Y83440D01*
X83985Y83201D01*
X83040Y82809D01*
X82168Y82275D01*
X81390Y81610D01*
X81000Y81154D01*
X80610Y81610D01*
X79832Y82275D01*
X78960Y82809D01*
X78015Y83201D01*
X77020Y83440D01*
X76000Y83520D01*
X75992Y83519D01*
Y86484D01*
X76000Y86483D01*
X76863Y86551D01*
X77705Y86753D01*
X78505Y87084D01*
X79243Y87537D01*
X79901Y88099D01*
X80463Y88757D01*
X80916Y89495D01*
X81000Y89699D01*
X81084Y89495D01*
X81537Y88757D01*
X82099Y88099D01*
X82757Y87537D01*
X83495Y87084D01*
X84295Y86753D01*
X85137Y86551D01*
X86000Y86483D01*
X86863Y86551D01*
X87705Y86753D01*
X88505Y87084D01*
X89243Y87537D01*
X89901Y88099D01*
X90463Y88757D01*
X90916Y89495D01*
X91000Y89699D01*
X91084Y89495D01*
X91537Y88757D01*
X92099Y88099D01*
X92757Y87537D01*
X93495Y87084D01*
X94295Y86753D01*
X95137Y86551D01*
X96000Y86483D01*
X96863Y86551D01*
X97705Y86753D01*
X98505Y87084D01*
X99243Y87537D01*
X99901Y88099D01*
X100463Y88757D01*
X100916Y89495D01*
X101000Y89699D01*
X101084Y89495D01*
X101537Y88757D01*
X102099Y88099D01*
X102757Y87537D01*
X103495Y87084D01*
X104295Y86753D01*
X105137Y86551D01*
X106000Y86483D01*
X106863Y86551D01*
X107705Y86753D01*
X108268Y86986D01*
Y83096D01*
X108015Y83201D01*
G37*
G36*
X84980Y70560D02*X86000Y70480D01*
X87020Y70560D01*
X88015Y70799D01*
X88960Y71191D01*
X89832Y71725D01*
X90610Y72390D01*
X91000Y72846D01*
X91390Y72390D01*
X92168Y71725D01*
X93040Y71191D01*
X93985Y70799D01*
X94980Y70560D01*
X96000Y70480D01*
X97020Y70560D01*
X98015Y70799D01*
X98960Y71191D01*
X99832Y71725D01*
X100610Y72390D01*
X101000Y72846D01*
X101390Y72390D01*
X102168Y71725D01*
X103040Y71191D01*
X103985Y70799D01*
X104980Y70560D01*
X106000Y70480D01*
X107020Y70560D01*
X108015Y70799D01*
X108268Y70904D01*
Y67385D01*
X107925Y67527D01*
X107542Y67619D01*
X107150Y67649D01*
X107052Y67642D01*
X99248D01*
X99150Y67649D01*
X98758Y67619D01*
X98757Y67619D01*
X98375Y67527D01*
X98011Y67376D01*
X97676Y67171D01*
X97376Y66915D01*
X97121Y66616D01*
X96915Y66280D01*
X96765Y65917D01*
X96673Y65534D01*
X96642Y65142D01*
X96650Y65044D01*
Y57240D01*
X96642Y57142D01*
X96673Y56750D01*
X96673Y56749D01*
X96765Y56367D01*
X96915Y56003D01*
X97121Y55668D01*
X97376Y55369D01*
X97676Y55113D01*
X98011Y54907D01*
X98375Y54757D01*
X98757Y54665D01*
X99150Y54634D01*
X99248Y54642D01*
X107052D01*
X107150Y54634D01*
X107542Y54665D01*
X107542Y54665D01*
X107925Y54757D01*
X108268Y54899D01*
Y35158D01*
X107760Y35752D01*
X107150Y36273D01*
Y37363D01*
X107162Y37520D01*
X107113Y38147D01*
X106966Y38760D01*
X106725Y39341D01*
X106396Y39878D01*
X105987Y40357D01*
X105867Y40459D01*
X92703Y53623D01*
X92601Y53743D01*
X92122Y54152D01*
X91585Y54481D01*
X91004Y54721D01*
X90391Y54868D01*
X89764Y54918D01*
X89607Y54906D01*
X88353D01*
X87699Y55463D01*
X86961Y55916D01*
X86162Y56247D01*
X85320Y56449D01*
X84457Y56517D01*
X84451Y56517D01*
Y70687D01*
X84980Y70560D01*
G37*
G36*
X84451Y2087D02*Y15500D01*
X87878D01*
X87957Y15494D01*
X88270Y15519D01*
X88271Y15519D01*
X88577Y15592D01*
X88867Y15712D01*
X89136Y15877D01*
X89375Y16081D01*
X89580Y16321D01*
X89744Y16589D01*
X89865Y16880D01*
X89938Y17186D01*
X89963Y17500D01*
X89957Y17578D01*
Y24422D01*
X89963Y24500D01*
X89938Y24814D01*
X89938Y24814D01*
X89865Y25120D01*
X89744Y25411D01*
X89580Y25679D01*
X89375Y25919D01*
X89136Y26123D01*
X88867Y26288D01*
X88577Y26408D01*
X88271Y26481D01*
X87957Y26506D01*
X87878Y26500D01*
X87640D01*
X87699Y26537D01*
X88358Y27099D01*
X88920Y27757D01*
X89372Y28495D01*
X89704Y29295D01*
X89906Y30137D01*
X89957Y31000D01*
X89906Y31863D01*
X89704Y32705D01*
X89372Y33505D01*
X88920Y34243D01*
X88358Y34901D01*
X87699Y35463D01*
X86961Y35916D01*
X86162Y36247D01*
X85320Y36449D01*
X84457Y36517D01*
X84451Y36517D01*
Y45483D01*
X84457Y45483D01*
X85320Y45551D01*
X86162Y45753D01*
X86961Y46084D01*
X87699Y46537D01*
X88118Y46894D01*
X98928Y36084D01*
X98539Y35752D01*
X97875Y34974D01*
X97340Y34102D01*
X96949Y33157D01*
X96710Y32162D01*
X96630Y31142D01*
X96710Y30122D01*
X96949Y29127D01*
X97340Y28182D01*
X97875Y27309D01*
X98539Y26531D01*
X99317Y25867D01*
X100190Y25332D01*
X101135Y24941D01*
X102130Y24702D01*
X103150Y24622D01*
X104170Y24702D01*
X105164Y24941D01*
X106110Y25332D01*
X106982Y25867D01*
X107760Y26531D01*
X108268Y27126D01*
Y2087D01*
X84451D01*
G37*
G36*
X75992D02*Y70481D01*
X76000Y70480D01*
X77020Y70560D01*
X78015Y70799D01*
X78960Y71191D01*
X79832Y71725D01*
X80610Y72390D01*
X81000Y72846D01*
X81390Y72390D01*
X82168Y71725D01*
X83040Y71191D01*
X83985Y70799D01*
X84451Y70687D01*
Y56517D01*
X83594Y56449D01*
X82752Y56247D01*
X81952Y55916D01*
X81214Y55463D01*
X80556Y54901D01*
X79993Y54243D01*
X79541Y53505D01*
X79210Y52705D01*
X79008Y51863D01*
X78940Y51000D01*
X79008Y50137D01*
X79210Y49295D01*
X79541Y48495D01*
X79993Y47757D01*
X80556Y47099D01*
X81214Y46537D01*
X81952Y46084D01*
X82752Y45753D01*
X83594Y45551D01*
X84451Y45483D01*
Y36517D01*
X83594Y36449D01*
X82752Y36247D01*
X81952Y35916D01*
X81214Y35463D01*
X80556Y34901D01*
X79993Y34243D01*
X79541Y33505D01*
X79210Y32705D01*
X79008Y31863D01*
X78940Y31000D01*
X79008Y30137D01*
X79210Y29295D01*
X79541Y28495D01*
X79993Y27757D01*
X80556Y27099D01*
X81214Y26537D01*
X81274Y26500D01*
X81035D01*
X80957Y26506D01*
X80643Y26481D01*
X80643Y26481D01*
X80337Y26408D01*
X80046Y26288D01*
X79777Y26123D01*
X79538Y25919D01*
X79334Y25679D01*
X79169Y25411D01*
X79049Y25120D01*
X78975Y24814D01*
X78951Y24500D01*
X78957Y24422D01*
Y17578D01*
X78951Y17500D01*
X78975Y17186D01*
X78975Y17186D01*
X79049Y16880D01*
X79169Y16589D01*
X79334Y16321D01*
X79538Y16081D01*
X79777Y15877D01*
X80046Y15712D01*
X80337Y15592D01*
X80643Y15519D01*
X80957Y15494D01*
X81035Y15500D01*
X84451D01*
Y2087D01*
X75992D01*
G37*
G36*
X107705Y157247D02*X106863Y157449D01*
X106000Y157517D01*
X105137Y157449D01*
X104295Y157247D01*
X103495Y156916D01*
X102757Y156463D01*
X102099Y155901D01*
X101537Y155243D01*
X101084Y154505D01*
X101000Y154301D01*
X100916Y154505D01*
X100463Y155243D01*
X99901Y155901D01*
X99243Y156463D01*
X98505Y156916D01*
X97705Y157247D01*
X96863Y157449D01*
X96000Y157517D01*
X95137Y157449D01*
X94295Y157247D01*
X93495Y156916D01*
X92757Y156463D01*
X92099Y155901D01*
X91537Y155243D01*
X91084Y154505D01*
X91000Y154301D01*
X90916Y154505D01*
X90463Y155243D01*
X89901Y155901D01*
X89243Y156463D01*
X88505Y156916D01*
X87705Y157247D01*
X86863Y157449D01*
X86000Y157517D01*
X85137Y157449D01*
X84295Y157247D01*
X83495Y156916D01*
X82757Y156463D01*
X82099Y155901D01*
X81537Y155243D01*
X81084Y154505D01*
X81000Y154301D01*
X80916Y154505D01*
X80463Y155243D01*
X79901Y155901D01*
X79243Y156463D01*
X78505Y156916D01*
X77705Y157247D01*
X76863Y157449D01*
X76000Y157517D01*
X75992Y157516D01*
Y160481D01*
X76000Y160480D01*
X77020Y160560D01*
X78015Y160799D01*
X78960Y161191D01*
X79832Y161725D01*
X80610Y162390D01*
X81000Y162846D01*
X81390Y162390D01*
X82168Y161725D01*
X83040Y161191D01*
X83985Y160799D01*
X84980Y160560D01*
X86000Y160480D01*
X87020Y160560D01*
X88015Y160799D01*
X88960Y161191D01*
X89832Y161725D01*
X90610Y162390D01*
X91000Y162846D01*
X91390Y162390D01*
X92168Y161725D01*
X93040Y161191D01*
X93985Y160799D01*
X94980Y160560D01*
X96000Y160480D01*
X97020Y160560D01*
X98015Y160799D01*
X98960Y161191D01*
X99832Y161725D01*
X100610Y162390D01*
X101275Y163168D01*
X101809Y164040D01*
X102201Y164985D01*
X102440Y165980D01*
X102500Y167000D01*
X102440Y168020D01*
X102201Y169015D01*
X101809Y169960D01*
X101275Y170832D01*
X100610Y171610D01*
X99832Y172275D01*
X98960Y172809D01*
X98015Y173201D01*
X97020Y173440D01*
X96000Y173520D01*
X94980Y173440D01*
X93985Y173201D01*
X93040Y172809D01*
X92168Y172275D01*
X91390Y171610D01*
X91000Y171154D01*
X90610Y171610D01*
X89832Y172275D01*
X88960Y172809D01*
X88015Y173201D01*
X87020Y173440D01*
X86000Y173520D01*
X84980Y173440D01*
X83985Y173201D01*
X83040Y172809D01*
X82168Y172275D01*
X81390Y171610D01*
X81000Y171154D01*
X80610Y171610D01*
X79832Y172275D01*
X78960Y172809D01*
X78015Y173201D01*
X77020Y173440D01*
X76000Y173520D01*
X75992Y173519D01*
Y193031D01*
X108268D01*
Y185014D01*
X107705Y185247D01*
X106863Y185449D01*
X106000Y185517D01*
X105137Y185449D01*
X104295Y185247D01*
X103495Y184916D01*
X102757Y184463D01*
X102099Y183901D01*
X101537Y183243D01*
X101084Y182505D01*
X100753Y181705D01*
X100551Y180863D01*
X100483Y180000D01*
X100551Y179137D01*
X100753Y178295D01*
X101084Y177495D01*
X101537Y176757D01*
X102099Y176099D01*
X102757Y175537D01*
X103495Y175084D01*
X104295Y174753D01*
X105137Y174551D01*
X106000Y174483D01*
X106863Y174551D01*
X107705Y174753D01*
X108268Y174986D01*
Y157014D01*
X107705Y157247D01*
G37*
G36*
X76000Y146483D02*X76863Y146551D01*
X77705Y146753D01*
X78505Y147084D01*
X79243Y147537D01*
X79901Y148099D01*
X80463Y148757D01*
X80916Y149495D01*
X81000Y149699D01*
X81084Y149495D01*
X81537Y148757D01*
X82099Y148099D01*
X82757Y147537D01*
X83495Y147084D01*
X84295Y146753D01*
X85137Y146551D01*
X86000Y146483D01*
X86863Y146551D01*
X87705Y146753D01*
X88505Y147084D01*
X89243Y147537D01*
X89901Y148099D01*
X90463Y148757D01*
X90916Y149495D01*
X91000Y149699D01*
X91084Y149495D01*
X91537Y148757D01*
X92099Y148099D01*
X92757Y147537D01*
X93495Y147084D01*
X94295Y146753D01*
X95137Y146551D01*
X96000Y146483D01*
X96863Y146551D01*
X97705Y146753D01*
X98505Y147084D01*
X99243Y147537D01*
X99901Y148099D01*
X100463Y148757D01*
X100916Y149495D01*
X101000Y149699D01*
X101084Y149495D01*
X101537Y148757D01*
X102099Y148099D01*
X102757Y147537D01*
X103495Y147084D01*
X104295Y146753D01*
X105137Y146551D01*
X106000Y146483D01*
X106863Y146551D01*
X107705Y146753D01*
X108268Y146986D01*
Y97014D01*
X107705Y97247D01*
X106863Y97449D01*
X106000Y97517D01*
X105137Y97449D01*
X104295Y97247D01*
X103495Y96916D01*
X102757Y96463D01*
X102099Y95901D01*
X101537Y95243D01*
X101084Y94505D01*
X101000Y94301D01*
X100916Y94505D01*
X100463Y95243D01*
X99901Y95901D01*
X99243Y96463D01*
X98505Y96916D01*
X97705Y97247D01*
X96863Y97449D01*
X96000Y97517D01*
X95137Y97449D01*
X94295Y97247D01*
X93495Y96916D01*
X92757Y96463D01*
X92099Y95901D01*
X91537Y95243D01*
X91084Y94505D01*
X91000Y94301D01*
X90916Y94505D01*
X90463Y95243D01*
X89901Y95901D01*
X89243Y96463D01*
X88505Y96916D01*
X87705Y97247D01*
X86863Y97449D01*
X86000Y97517D01*
X85137Y97449D01*
X84295Y97247D01*
X83495Y96916D01*
X82757Y96463D01*
X82099Y95901D01*
X81537Y95243D01*
X81084Y94505D01*
X81000Y94301D01*
X80916Y94505D01*
X80463Y95243D01*
X79901Y95901D01*
X79243Y96463D01*
X78505Y96916D01*
X77705Y97247D01*
X76863Y97449D01*
X76000Y97517D01*
X75992Y97516D01*
Y146484D01*
X76000Y146483D01*
G37*
G36*
X75137Y157449D02*X74295Y157247D01*
X73495Y156916D01*
X72757Y156463D01*
X72099Y155901D01*
X71537Y155243D01*
X71084Y154505D01*
X71000Y154301D01*
X70916Y154505D01*
X70463Y155243D01*
X69901Y155901D01*
X69243Y156463D01*
X68505Y156916D01*
X67705Y157247D01*
X66863Y157449D01*
X66000Y157517D01*
X65137Y157449D01*
X64295Y157247D01*
X63495Y156916D01*
X62757Y156463D01*
X62099Y155901D01*
X61537Y155243D01*
X61084Y154505D01*
X61000Y154301D01*
X60916Y154505D01*
X60463Y155243D01*
X59901Y155901D01*
X59243Y156463D01*
X58505Y156916D01*
X57705Y157247D01*
X56863Y157449D01*
X56000Y157517D01*
X55137Y157449D01*
X54295Y157247D01*
X53495Y156916D01*
X52757Y156463D01*
X52099Y155901D01*
X51537Y155243D01*
X51084Y154505D01*
X51000Y154301D01*
X50916Y154505D01*
X50463Y155243D01*
X49901Y155901D01*
X49243Y156463D01*
X48505Y156916D01*
X47705Y157247D01*
X46863Y157449D01*
X46000Y157517D01*
X45137Y157449D01*
X44295Y157247D01*
X43495Y156916D01*
X42757Y156463D01*
X42099Y155901D01*
X41537Y155243D01*
X41084Y154505D01*
X41000Y154301D01*
X40916Y154505D01*
X40463Y155243D01*
X39901Y155901D01*
X39243Y156463D01*
X38505Y156916D01*
X37705Y157247D01*
X36863Y157449D01*
X36000Y157517D01*
X35137Y157449D01*
X34295Y157247D01*
X33495Y156916D01*
X32757Y156463D01*
X32099Y155901D01*
X31537Y155243D01*
X31084Y154505D01*
X31000Y154301D01*
X30916Y154505D01*
X30463Y155243D01*
X30000Y155785D01*
Y162000D01*
X29963Y162628D01*
X29952Y162673D01*
Y164977D01*
X29955Y165016D01*
X29943Y165173D01*
X29943Y165173D01*
X29906Y165326D01*
X29846Y165471D01*
X29764Y165606D01*
X29661Y165725D01*
X29542Y165828D01*
X29407Y165910D01*
X29262Y165970D01*
X29137Y166000D01*
X29262Y166030D01*
X29407Y166090D01*
X29542Y166172D01*
X29661Y166275D01*
X29764Y166394D01*
X29846Y166529D01*
X29906Y166674D01*
X29943Y166827D01*
X29955Y166984D01*
X29952Y167023D01*
Y168295D01*
X30718Y169061D01*
X30837Y169163D01*
X31246Y169641D01*
X31246Y169642D01*
X31575Y170178D01*
X31816Y170760D01*
X31963Y171372D01*
X32012Y172000D01*
X32000Y172157D01*
Y174868D01*
X32610Y175390D01*
X33000Y175846D01*
X33390Y175390D01*
X34168Y174725D01*
X35040Y174191D01*
X35985Y173799D01*
X36980Y173560D01*
X38000Y173480D01*
X39020Y173560D01*
X40015Y173799D01*
X40960Y174191D01*
X41832Y174725D01*
X42610Y175390D01*
X43275Y176168D01*
X43809Y177040D01*
X44201Y177985D01*
X44440Y178980D01*
X44500Y180000D01*
X44440Y181020D01*
X44201Y182015D01*
X43809Y182960D01*
X43275Y183832D01*
X42610Y184610D01*
X41832Y185275D01*
X40960Y185809D01*
X40015Y186201D01*
X39020Y186440D01*
X38000Y186520D01*
X36980Y186440D01*
X35985Y186201D01*
X35040Y185809D01*
X34168Y185275D01*
X33390Y184610D01*
X33000Y184154D01*
X32610Y184610D01*
X31832Y185275D01*
X30960Y185809D01*
X30015Y186201D01*
X29020Y186440D01*
X28000Y186520D01*
X26980Y186440D01*
X25985Y186201D01*
X25040Y185809D01*
X24168Y185275D01*
X23390Y184610D01*
X23000Y184154D01*
X22610Y184610D01*
X21832Y185275D01*
X20960Y185809D01*
X20015Y186201D01*
X19020Y186440D01*
X18000Y186520D01*
X16980Y186440D01*
X15985Y186201D01*
X15040Y185809D01*
X14168Y185275D01*
X13390Y184610D01*
X13000Y184154D01*
X12610Y184610D01*
X11832Y185275D01*
X10960Y185809D01*
X10015Y186201D01*
X9020Y186440D01*
X8000Y186520D01*
X6980Y186440D01*
X5985Y186201D01*
X5040Y185809D01*
X4168Y185275D01*
X3390Y184610D01*
X2725Y183832D01*
X2191Y182960D01*
X1969Y182424D01*
Y193031D01*
X75992D01*
Y173519D01*
X74980Y173440D01*
X73985Y173201D01*
X73040Y172809D01*
X72168Y172275D01*
X71390Y171610D01*
X71000Y171154D01*
X70610Y171610D01*
X69832Y172275D01*
X68960Y172809D01*
X68015Y173201D01*
X67020Y173440D01*
X66000Y173520D01*
X64980Y173440D01*
X63985Y173201D01*
X63040Y172809D01*
X62168Y172275D01*
X61390Y171610D01*
X61000Y171154D01*
X60610Y171610D01*
X59832Y172275D01*
X58960Y172809D01*
X58015Y173201D01*
X57020Y173440D01*
X56000Y173520D01*
X54980Y173440D01*
X53985Y173201D01*
X53040Y172809D01*
X52168Y172275D01*
X51390Y171610D01*
X51000Y171154D01*
X50610Y171610D01*
X49832Y172275D01*
X48960Y172809D01*
X48015Y173201D01*
X47020Y173440D01*
X46000Y173520D01*
X44980Y173440D01*
X43985Y173201D01*
X43040Y172809D01*
X42168Y172275D01*
X41390Y171610D01*
X40725Y170832D01*
X40191Y169960D01*
X39799Y169015D01*
X39560Y168020D01*
X39480Y167000D01*
X39560Y165980D01*
X39799Y164985D01*
X40191Y164040D01*
X40725Y163168D01*
X41390Y162390D01*
X42168Y161725D01*
X43040Y161191D01*
X43985Y160799D01*
X44980Y160560D01*
X46000Y160480D01*
X47020Y160560D01*
X48015Y160799D01*
X48960Y161191D01*
X49832Y161725D01*
X50610Y162390D01*
X51000Y162846D01*
X51390Y162390D01*
X52168Y161725D01*
X53040Y161191D01*
X53985Y160799D01*
X54980Y160560D01*
X56000Y160480D01*
X57020Y160560D01*
X58015Y160799D01*
X58960Y161191D01*
X59832Y161725D01*
X60610Y162390D01*
X61000Y162846D01*
X61390Y162390D01*
X62168Y161725D01*
X63040Y161191D01*
X63985Y160799D01*
X64980Y160560D01*
X66000Y160480D01*
X67020Y160560D01*
X68015Y160799D01*
X68960Y161191D01*
X69832Y161725D01*
X70610Y162390D01*
X71000Y162846D01*
X71390Y162390D01*
X72168Y161725D01*
X73040Y161191D01*
X73985Y160799D01*
X74980Y160560D01*
X75992Y160481D01*
Y157516D01*
X75137Y157449D01*
G37*
G36*
X21084Y149495D02*X21537Y148757D01*
X22099Y148099D01*
X22757Y147537D01*
X23495Y147084D01*
X24295Y146753D01*
X25137Y146551D01*
X26000Y146483D01*
X26863Y146551D01*
X27705Y146753D01*
X28505Y147084D01*
X29243Y147537D01*
X29901Y148099D01*
X30463Y148757D01*
X30916Y149495D01*
X31000Y149699D01*
X31084Y149495D01*
X31537Y148757D01*
X32099Y148099D01*
X32757Y147537D01*
X33495Y147084D01*
X34295Y146753D01*
X35137Y146551D01*
X36000Y146483D01*
X36863Y146551D01*
X37705Y146753D01*
X38505Y147084D01*
X39243Y147537D01*
X39901Y148099D01*
X40463Y148757D01*
X40916Y149495D01*
X41000Y149699D01*
X41084Y149495D01*
X41537Y148757D01*
X42099Y148099D01*
X42757Y147537D01*
X43495Y147084D01*
X44295Y146753D01*
X45137Y146551D01*
X46000Y146483D01*
X46863Y146551D01*
X47705Y146753D01*
X48505Y147084D01*
X49243Y147537D01*
X49901Y148099D01*
X50463Y148757D01*
X50916Y149495D01*
X51000Y149699D01*
X51084Y149495D01*
X51537Y148757D01*
X52099Y148099D01*
X52757Y147537D01*
X53495Y147084D01*
X54295Y146753D01*
X55137Y146551D01*
X56000Y146483D01*
X56863Y146551D01*
X57705Y146753D01*
X58505Y147084D01*
X59243Y147537D01*
X59901Y148099D01*
X60463Y148757D01*
X60916Y149495D01*
X61000Y149699D01*
X61084Y149495D01*
X61537Y148757D01*
X62099Y148099D01*
X62757Y147537D01*
X63495Y147084D01*
X64295Y146753D01*
X65137Y146551D01*
X66000Y146483D01*
X66863Y146551D01*
X67705Y146753D01*
X68505Y147084D01*
X69243Y147537D01*
X69901Y148099D01*
X70463Y148757D01*
X70916Y149495D01*
X71000Y149699D01*
X71084Y149495D01*
X71537Y148757D01*
X72099Y148099D01*
X72757Y147537D01*
X73495Y147084D01*
X74295Y146753D01*
X75137Y146551D01*
X75992Y146484D01*
Y97516D01*
X75137Y97449D01*
X74295Y97247D01*
X73495Y96916D01*
X72757Y96463D01*
X72099Y95901D01*
X71537Y95243D01*
X71084Y94505D01*
X71000Y94301D01*
X70916Y94505D01*
X70463Y95243D01*
X69901Y95901D01*
X69243Y96463D01*
X68505Y96916D01*
X67705Y97247D01*
X66863Y97449D01*
X66000Y97517D01*
X65137Y97449D01*
X64295Y97247D01*
X63495Y96916D01*
X62757Y96463D01*
X62099Y95901D01*
X61537Y95243D01*
X61084Y94505D01*
X61000Y94301D01*
X60916Y94505D01*
X60463Y95243D01*
X59901Y95901D01*
X59243Y96463D01*
X58505Y96916D01*
X57705Y97247D01*
X56863Y97449D01*
X56000Y97517D01*
X55137Y97449D01*
X54295Y97247D01*
X53495Y96916D01*
X52757Y96463D01*
X52099Y95901D01*
X51537Y95243D01*
X51084Y94505D01*
X51000Y94301D01*
X50916Y94505D01*
X50463Y95243D01*
X49901Y95901D01*
X49243Y96463D01*
X48505Y96916D01*
X47705Y97247D01*
X46863Y97449D01*
X46000Y97517D01*
X45137Y97449D01*
X44295Y97247D01*
X43495Y96916D01*
X42757Y96463D01*
X42099Y95901D01*
X41537Y95243D01*
X41084Y94505D01*
X41000Y94301D01*
X40916Y94505D01*
X40463Y95243D01*
X39901Y95901D01*
X39243Y96463D01*
X38505Y96916D01*
X37705Y97247D01*
X36863Y97449D01*
X36000Y97517D01*
X35137Y97449D01*
X34295Y97247D01*
X33495Y96916D01*
X32757Y96463D01*
X32099Y95901D01*
X31537Y95243D01*
X31084Y94505D01*
X31000Y94301D01*
X30916Y94505D01*
X30463Y95243D01*
X29901Y95901D01*
X29243Y96463D01*
X28505Y96916D01*
X27705Y97247D01*
X26863Y97449D01*
X26000Y97517D01*
X25137Y97449D01*
X24295Y97247D01*
X23495Y96916D01*
X22757Y96463D01*
X22099Y95901D01*
X21537Y95243D01*
X21084Y94505D01*
X21000Y94301D01*
X20916Y94505D01*
X20463Y95243D01*
X19901Y95901D01*
X19243Y96463D01*
X18505Y96916D01*
X17705Y97247D01*
X16863Y97449D01*
X16000Y97517D01*
X15137Y97449D01*
X14295Y97247D01*
X13495Y96916D01*
X12757Y96463D01*
X12099Y95901D01*
X11537Y95243D01*
X11084Y94505D01*
X10753Y93705D01*
X10551Y92863D01*
X10483Y92000D01*
X10551Y91137D01*
X10753Y90295D01*
X11084Y89495D01*
X11537Y88757D01*
X12099Y88099D01*
X12757Y87537D01*
X13495Y87084D01*
X14295Y86753D01*
X15137Y86551D01*
X16000Y86483D01*
X16863Y86551D01*
X17705Y86753D01*
X18505Y87084D01*
X19243Y87537D01*
X19901Y88099D01*
X20463Y88757D01*
X20916Y89495D01*
X21000Y89699D01*
X21084Y89495D01*
X21537Y88757D01*
X22099Y88099D01*
X22757Y87537D01*
X23495Y87084D01*
X24295Y86753D01*
X25137Y86551D01*
X26000Y86483D01*
X26863Y86551D01*
X27705Y86753D01*
X28505Y87084D01*
X29243Y87537D01*
X29901Y88099D01*
X30463Y88757D01*
X30916Y89495D01*
X31000Y89699D01*
X31084Y89495D01*
X31537Y88757D01*
X32099Y88099D01*
X32757Y87537D01*
X33495Y87084D01*
X34295Y86753D01*
X35137Y86551D01*
X36000Y86483D01*
X36863Y86551D01*
X37705Y86753D01*
X38505Y87084D01*
X39243Y87537D01*
X39901Y88099D01*
X40463Y88757D01*
X40916Y89495D01*
X41000Y89699D01*
X41084Y89495D01*
X41537Y88757D01*
X42099Y88099D01*
X42757Y87537D01*
X43495Y87084D01*
X44295Y86753D01*
X45137Y86551D01*
X46000Y86483D01*
X46863Y86551D01*
X47705Y86753D01*
X48505Y87084D01*
X49243Y87537D01*
X49901Y88099D01*
X50463Y88757D01*
X50916Y89495D01*
X51000Y89699D01*
X51084Y89495D01*
X51537Y88757D01*
X52099Y88099D01*
X52757Y87537D01*
X53495Y87084D01*
X54295Y86753D01*
X55137Y86551D01*
X56000Y86483D01*
X56863Y86551D01*
X57705Y86753D01*
X58505Y87084D01*
X59243Y87537D01*
X59901Y88099D01*
X60463Y88757D01*
X60916Y89495D01*
X61000Y89699D01*
X61084Y89495D01*
X61537Y88757D01*
X62099Y88099D01*
X62757Y87537D01*
X63495Y87084D01*
X64295Y86753D01*
X65137Y86551D01*
X66000Y86483D01*
X66863Y86551D01*
X67705Y86753D01*
X68505Y87084D01*
X69243Y87537D01*
X69901Y88099D01*
X70463Y88757D01*
X70916Y89495D01*
X71000Y89699D01*
X71084Y89495D01*
X71537Y88757D01*
X72099Y88099D01*
X72757Y87537D01*
X73495Y87084D01*
X74295Y86753D01*
X75137Y86551D01*
X75992Y86484D01*
Y83519D01*
X74980Y83440D01*
X73985Y83201D01*
X73040Y82809D01*
X72168Y82275D01*
X71390Y81610D01*
X71000Y81154D01*
X70610Y81610D01*
X69832Y82275D01*
X68960Y82809D01*
X68015Y83201D01*
X67020Y83440D01*
X66000Y83520D01*
X64980Y83440D01*
X63985Y83201D01*
X63040Y82809D01*
X62168Y82275D01*
X61390Y81610D01*
X61000Y81154D01*
X60610Y81610D01*
X59832Y82275D01*
X58960Y82809D01*
X58015Y83201D01*
X57020Y83440D01*
X56000Y83520D01*
X54980Y83440D01*
X53985Y83201D01*
X53040Y82809D01*
X52168Y82275D01*
X51390Y81610D01*
X51000Y81154D01*
X50610Y81610D01*
X49832Y82275D01*
X48960Y82809D01*
X48015Y83201D01*
X47020Y83440D01*
X46000Y83520D01*
X44980Y83440D01*
X43985Y83201D01*
X43040Y82809D01*
X42168Y82275D01*
X41390Y81610D01*
X41000Y81154D01*
X40610Y81610D01*
X39832Y82275D01*
X38960Y82809D01*
X38015Y83201D01*
X37020Y83440D01*
X36000Y83520D01*
X34980Y83440D01*
X33985Y83201D01*
X33040Y82809D01*
X32168Y82275D01*
X31390Y81610D01*
X31000Y81154D01*
X30610Y81610D01*
X29832Y82275D01*
X28960Y82809D01*
X28015Y83201D01*
X27020Y83440D01*
X26000Y83520D01*
X24980Y83440D01*
X23985Y83201D01*
X23040Y82809D01*
X22168Y82275D01*
X21390Y81610D01*
X20725Y80832D01*
X20191Y79960D01*
X19799Y79015D01*
X19560Y78020D01*
X19480Y77000D01*
X19560Y75980D01*
X19799Y74985D01*
X20191Y74040D01*
X20725Y73168D01*
X21390Y72390D01*
X22168Y71725D01*
X23040Y71191D01*
X23985Y70799D01*
X24980Y70560D01*
X26000Y70480D01*
X27020Y70560D01*
X28015Y70799D01*
X28960Y71191D01*
X29832Y71725D01*
X30610Y72390D01*
X31000Y72846D01*
X31390Y72390D01*
X32168Y71725D01*
X33040Y71191D01*
X33985Y70799D01*
X34980Y70560D01*
X36000Y70480D01*
X37020Y70560D01*
X38015Y70799D01*
X38960Y71191D01*
X39832Y71725D01*
X40610Y72390D01*
X41000Y72846D01*
X41390Y72390D01*
X42168Y71725D01*
X43040Y71191D01*
X43985Y70799D01*
X44980Y70560D01*
X46000Y70480D01*
X47020Y70560D01*
X48015Y70799D01*
X48960Y71191D01*
X49832Y71725D01*
X50610Y72390D01*
X51000Y72846D01*
X51390Y72390D01*
X52168Y71725D01*
X53040Y71191D01*
X53985Y70799D01*
X54980Y70560D01*
X56000Y70480D01*
X57020Y70560D01*
X58015Y70799D01*
X58960Y71191D01*
X59832Y71725D01*
X60610Y72390D01*
X61000Y72846D01*
X61390Y72390D01*
X62168Y71725D01*
X63040Y71191D01*
X63985Y70799D01*
X64980Y70560D01*
X66000Y70480D01*
X67020Y70560D01*
X68015Y70799D01*
X68960Y71191D01*
X69832Y71725D01*
X70610Y72390D01*
X71000Y72846D01*
X71390Y72390D01*
X72168Y71725D01*
X73040Y71191D01*
X73985Y70799D01*
X74980Y70560D01*
X75992Y70481D01*
Y2087D01*
X1969D01*
Y177576D01*
X2191Y177040D01*
X2725Y176168D01*
X3390Y175390D01*
X4168Y174725D01*
X5040Y174191D01*
X5985Y173799D01*
X6980Y173560D01*
X8000Y173480D01*
X9020Y173560D01*
X10015Y173799D01*
X10960Y174191D01*
X11832Y174725D01*
X12610Y175390D01*
X13000Y175846D01*
X13390Y175390D01*
X14168Y174725D01*
X15040Y174191D01*
X15555Y173977D01*
X15372Y173963D01*
X14760Y173816D01*
X14178Y173575D01*
X13642Y173246D01*
X13163Y172837D01*
X12754Y172358D01*
X12425Y171822D01*
X12184Y171240D01*
X12037Y170628D01*
X12000Y170000D01*
Y155785D01*
X11537Y155243D01*
X11084Y154505D01*
X10753Y153705D01*
X10551Y152863D01*
X10483Y152000D01*
X10551Y151137D01*
X10753Y150295D01*
X11084Y149495D01*
X11537Y148757D01*
X12099Y148099D01*
X12757Y147537D01*
X13495Y147084D01*
X14295Y146753D01*
X15137Y146551D01*
X16000Y146483D01*
X16863Y146551D01*
X17705Y146753D01*
X18505Y147084D01*
X19243Y147537D01*
X19901Y148099D01*
X20463Y148757D01*
X20916Y149495D01*
X21000Y149699D01*
X21084Y149495D01*
G37*
G54D25*X16000Y152000D02*Y170000D01*
X28000Y180000D02*Y172000D01*
G54D26*X26000Y170000D02*X16000D01*
G54D25*X28000Y172000D02*X26000Y170000D01*
Y152000D02*Y162000D01*
X89764Y50906D02*X84551D01*
X84457Y51000D01*
X84551D01*
X84646Y50906D01*
X177500Y150000D02*Y107500D01*
X103150Y31142D02*Y37520D01*
X89764Y50906D01*
G54D27*X56000Y167000D03*
X46000D03*
X66000D03*
X76000D03*
X96000D03*
X136000D03*
G54D28*X96000Y180000D03*
X106000D03*
G54D24*G36*
X129500Y183500D02*X122500D01*
Y176500D01*
X129500D01*
Y183500D01*
G37*
G54D28*X116000Y180000D03*
G54D27*X146000Y167000D03*
X156000D03*
X86000D03*
G54D29*X96000Y152000D03*
X106000D03*
X86000D03*
X116000D03*
X126000D03*
X136000D03*
X156000D03*
X146000D03*
G54D24*G36*
X28952Y166984D02*Y172102D01*
X23048D01*
Y166984D01*
X28952D01*
G37*
G36*
Y159898D02*Y165016D01*
X23048D01*
Y159898D01*
X28952D01*
G37*
G54D29*X36000Y152000D03*
X46000D03*
X16000D03*
X26000D03*
X56000D03*
X66000D03*
X76000D03*
G54D24*G36*
X52000Y184000D02*Y176000D01*
X44000D01*
Y184000D01*
X52000D01*
G37*
G54D27*X38000Y180000D03*
X28000D03*
X18000D03*
X8000D03*
G54D30*X13000Y13000D03*
G54D27*X66000Y77000D03*
X56000D03*
X46000D03*
X36000D03*
X26000D03*
X76000D03*
X96000D03*
X86000D03*
X116000D03*
X106000D03*
G54D29*X126000Y92000D03*
X116000D03*
X156000D03*
X146000D03*
X136000D03*
G54D24*G36*
X184500Y79000D02*X176500D01*
Y87000D01*
X184500D01*
Y79000D01*
G37*
G54D27*X180500Y93000D03*
X126000Y71000D03*
G54D29*X106000Y92000D03*
X96000D03*
X86000D03*
X46000D03*
X36000D03*
X26000D03*
X16000D03*
X76000D03*
X66000D03*
X56000D03*
G54D28*X84457Y51000D03*
Y41000D03*
Y31000D03*
G54D24*G36*
X107150Y65142D02*Y57142D01*
X99150D01*
Y65142D01*
X107150D01*
G37*
G36*
X117386D02*Y57142D01*
X109386D01*
Y65142D01*
X117386D01*
G37*
G54D27*X126000Y51000D03*
Y61000D03*
X103150Y31142D03*
X113386D03*
X126000Y31000D03*
Y41000D03*
G54D24*G36*
X80957Y24500D02*Y17500D01*
X87957D01*
Y24500D01*
X80957D01*
G37*
G36*
X130000Y7000D02*X122000D01*
Y15000D01*
X130000D01*
Y7000D01*
G37*
G54D27*X126000Y21000D03*
G54D31*X177500Y150000D03*
G54D27*X225200Y182100D03*
X218567Y163543D03*
X245200Y182100D03*
X238567Y163543D03*
X228567D03*
G54D24*G36*
X213300Y178300D02*X205300D01*
Y186300D01*
X213300D01*
Y178300D01*
G37*
G54D27*X199300Y182300D03*
G54D24*G36*
X279000Y190000D02*Y182000D01*
X271000D01*
Y190000D01*
X279000D01*
G37*
G54D27*X265000Y186000D03*
X278567Y163543D03*
X268567D03*
G54D30*X309000Y182000D03*
G54D24*G36*
X292567Y167543D02*Y159543D01*
X284567D01*
Y167543D01*
X292567D01*
G37*
G54D27*X258567Y163543D03*
X248567D03*
G54D30*X309000Y13000D03*
G54D31*X177500Y107500D03*
G54D32*G54D33*G54D32*G54D25*G54D32*G54D33*G54D32*G54D34*G54D32*G54D35*G54D32*G54D34*G54D32*G54D36*G54D32*G54D34*G54D25*G54D32*G54D25*G54D36*G54D32*G54D37*G54D32*G54D38*G54D32*G54D35*G54D37*G54D32*G54D35*G54D32*G54D37*M02*
